<?xml version="1.0" encoding="utf-8"?>
<!-- Generator: Adobe Illustrator 22.1.0, SVG Export Plug-In . SVG Version: 6.00 Build 0)  -->
<svg version="1.1" id="Слой_1" xmlns="http://www.w3.org/2000/svg" xmlns:xlink="http://www.w3.org/1999/xlink" x="0px" y="0px"
	 viewBox="0 0 522.8 431.7" style="enable-background:new 0 0 522.8 431.7;" xml:space="preserve">
<style type="text/css">
	.st0{fill:#2B2E36;}
	.st1{fill:#AEB0B3;}
	.st2{fill:#AFAFAF;}
	.st3{fill:#5298F6;}
	.st4{fill:#90DEE6;}
	.st5{fill:#F2F2F2;}
	.st6{fill:#D6D0DB;}
	.st7{fill:#4976F7;}
	.st8{fill:#DDF3F5;}
</style>
<circle class="st0" cx="267.9" cy="232.7" r="174.6"/>
<path class="st1" d="M241.8,301.9h-71.4c-2.1,0-3.8-1.7-3.8-3.8c0-2.1,1.7-3.8,3.8-3.8H238V176.1c0-2.1,1.7-3.8,3.8-3.8
	c2.1,0,3.8,1.7,3.8,3.8v122C245.6,300.2,243.9,301.9,241.8,301.9z"/>
<path class="st2" d="M197.6,246.7h-53.1c-3.9,0-7-3.1-7-7c0-3.9-3.1-7-7-7h-28c-3.9,0-7,3.1-7,7v73.7h109.1v-59.7
	C204.6,249.8,201.5,246.7,197.6,246.7z"/>
<path class="st3" d="M207.4,260.5H92.7c-4.6,0-8.1,4.1-7.4,8.6l9.3,62.1c0.5,3.7,3.7,6.4,7.4,6.4h96.2c3.7,0,6.9-2.7,7.4-6.4
	l9.3-62.1C215.5,264.6,212,260.5,207.4,260.5z"/>
<path class="st1" d="M285.6,301.9H357c2.1,0,3.8-1.7,3.8-3.8c0-2.1-1.7-3.8-3.8-3.8h-67.7V176.1c0-2.1-1.7-3.8-3.8-3.8
	c-2.1,0-3.8,1.7-3.8,3.8v122C281.8,300.2,283.5,301.9,285.6,301.9z"/>
<path class="st4" d="M326.8,246.7h53.1c3.9,0,7-3.1,7-7c0-3.9,3.1-7,7-7h28c3.9,0,7,3.1,7,7v73.7H319.8v-59.7
	C319.8,249.8,322.9,246.7,326.8,246.7z"/>
<path class="st3" d="M320,260.5h114.7c4.6,0,8.1,4.1,7.4,8.6l-9.3,62.1c-0.5,3.7-3.7,6.4-7.4,6.4h-96.2c-3.7,0-6.9-2.7-7.4-6.4
	l-9.3-62.1C311.9,264.6,315.4,260.5,320,260.5z"/>
<g>
	<path class="st5" d="M420.2,140.3c1.5-5.2,2.3-10.6,2.3-16.3c0-32.6-26.5-59.1-59.1-59.1c-5.2,0-10.2,0.7-15,2
		c-16.3-36.2-52.7-61.3-94.9-61.3c-53.2,0-97.1,40-103.3,91.5c-0.3,0-0.5,0-0.8,0c-23.1,0-41.8,18.7-41.8,41.8
		c0,0.9,0.1,1.9,0.1,2.8c-16,6.1-27.5,21.6-27.5,39.7c0,23.5,19,42.5,42.5,42.5h286.3c23.5,0,42.5-19,42.5-42.5
		C451.8,161.7,438.4,145.2,420.2,140.3z"/>
	<path class="st0" d="M409.3,227.9H122.9c-25.7,0-46.5-20.9-46.5-46.5c0-18.2,10.9-34.9,27.3-42.3c0-0.1,0-0.1,0-0.2
		c0-24.3,19.1-44.3,43.1-45.7c8-52.4,53.4-91.6,106.8-91.6c41.3,0,79.1,23.7,97.2,60.7c4.3-0.9,8.6-1.4,12.7-1.4
		c34.8,0,63.1,28.3,63.1,63.1c0,4.5-0.5,9.1-1.5,13.6c18.3,6.6,30.7,24,30.7,43.7C455.8,207,434.9,227.9,409.3,227.9z M149.5,101
		c-20.8,0-37.8,16.9-37.8,37.8c0,0.6,0,1.3,0.1,2l0.2,3.5l-2.8,1.1c-14.9,5.7-24.9,20.1-24.9,36c0,21.3,17.3,38.5,38.5,38.5h286.3
		c21.3,0,38.5-17.3,38.5-38.5c0-17.4-11.8-32.7-28.6-37.2l-3.9-1.1l1.1-3.9c1.4-5,2.2-10.2,2.2-15.2c0-30.4-24.7-55.1-55.1-55.1
		c-4.6,0-9.3,0.6-14,1.9l-3.3,0.9l-1.4-3.1c-16.2-35.8-52-59-91.3-59c-50.6,0-93.3,37.8-99.4,88l-0.4,3.6l-3.6-0.1
		c-0.2,0-0.4,0-0.6,0L149.5,101z"/>
</g>
<g>
	<path class="st6" d="M284.6,63.9h-1.7c-1.3,0-2.3-1-2.3-2.3s1-2.3,2.3-2.3h1.7c1.3,0,2.3,1,2.3,2.3S285.9,63.9,284.6,63.9z"/>
	<path class="st6" d="M320.6,63.9h-3.3c-1.3,0-2.3-1-2.3-2.3s1-2.3,2.3-2.3h3.3c1.3,0,2.3,1,2.3,2.3S321.9,63.9,320.6,63.9z
		 M308.6,63.9h-3.3c-1.3,0-2.3-1-2.3-2.3s1-2.3,2.3-2.3h3.3c1.3,0,2.3,1,2.3,2.3S309.9,63.9,308.6,63.9z M296.6,63.9h-3.3
		c-1.3,0-2.3-1-2.3-2.3s1-2.3,2.3-2.3h3.3c1.3,0,2.3,1,2.3,2.3S297.9,63.9,296.6,63.9z"/>
	<path class="st6" d="M331.1,65.6c-1.1,0-2-0.8-2.2-1.8c-1-0.2-1.8-1.1-1.8-2.2c0-1.3,1-2.3,2.3-2.3h1.7c1.3,0,2.3,1,2.3,2.3v1.7
		C333.4,64.6,332.3,65.6,331.1,65.6z"/>
	<path class="st6" d="M331.1,101.6c-1.3,0-2.3-1-2.3-2.3v-3.3c0-1.3,1-2.3,2.3-2.3s2.3,1,2.3,2.3v3.3
		C333.4,100.6,332.3,101.6,331.1,101.6z M331.1,89.6c-1.3,0-2.3-1-2.3-2.3v-3.3c0-1.3,1-2.3,2.3-2.3s2.3,1,2.3,2.3v3.3
		C333.4,88.6,332.3,89.6,331.1,89.6z M331.1,77.6c-1.3,0-2.3-1-2.3-2.3v-3.3c0-1.3,1-2.3,2.3-2.3s2.3,1,2.3,2.3v3.3
		C333.4,76.6,332.3,77.6,331.1,77.6z"/>
	<path class="st6" d="M331.1,112.1c-1.3,0-2.3-1-2.3-2.3v-1.7c0-1.3,1-2.3,2.3-2.3s2.3,1,2.3,2.3v1.7
		C333.4,111,332.3,112.1,331.1,112.1z"/>
	<path class="st6" d="M189.2,159.6c-1.3,0-2.3-1-2.3-2.3v-1.7c0-1.3,1-2.3,2.3-2.3c1.3,0,2.3,1,2.3,2.3v1.7
		C191.5,158.6,190.5,159.6,189.2,159.6z"/>
	<path class="st6" d="M189.2,195.6c-1.3,0-2.3-1-2.3-2.3v-3.3c0-1.3,1-2.3,2.3-2.3c1.3,0,2.3,1,2.3,2.3v3.3
		C191.5,194.6,190.5,195.6,189.2,195.6z M189.2,183.6c-1.3,0-2.3-1-2.3-2.3v-3.3c0-1.3,1-2.3,2.3-2.3c1.3,0,2.3,1,2.3,2.3v3.3
		C191.5,182.6,190.5,183.6,189.2,183.6z M189.2,171.6c-1.3,0-2.3-1-2.3-2.3v-3.3c0-1.3,1-2.3,2.3-2.3c1.3,0,2.3,1,2.3,2.3v3.3
		C191.5,170.6,190.5,171.6,189.2,171.6z"/>
	<path class="st6" d="M190.9,206.1h-1.7c-1.3,0-2.3-1-2.3-2.3V202c0-1.3,1-2.3,2.3-2.3c1.1,0,2,0.8,2.2,1.8c1,0.2,1.8,1.1,1.8,2.2
		C193.2,205,192.2,206.1,190.9,206.1z"/>
	<path class="st6" d="M226.7,206.1h-3.3c-1.3,0-2.3-1-2.3-2.3c0-1.3,1-2.3,2.3-2.3h3.3c1.3,0,2.3,1,2.3,2.3
		C229,205,227.9,206.1,226.7,206.1z M214.8,206.1h-3.3c-1.3,0-2.3-1-2.3-2.3c0-1.3,1-2.3,2.3-2.3h3.3c1.3,0,2.3,1,2.3,2.3
		C217.1,205,216,206.1,214.8,206.1z M202.8,206.1h-3.3c-1.3,0-2.3-1-2.3-2.3c0-1.3,1-2.3,2.3-2.3h3.3c1.3,0,2.3,1,2.3,2.3
		C205.1,205,204.1,206.1,202.8,206.1z"/>
	<path class="st6" d="M237.1,206.1h-1.7c-1.3,0-2.3-1-2.3-2.3c0-1.3,1-2.3,2.3-2.3h1.7c1.3,0,2.3,1,2.3,2.3
		C239.4,205,238.3,206.1,237.1,206.1z"/>
</g>
<path class="st3" d="M331.1,112.1h-50.4V61.6c0-1.3-1-2.3-2.3-2.3h-89.4c-1.3,0-2.3,1-2.3,2.3V151c0,1.3,1,2.3,2.3,2.3h50.4v50.4
	c0,1.3,1,2.3,2.3,2.3h89.4c1.3,0,2.3-1,2.3-2.3v-89.4C333.4,113.1,332.3,112.1,331.1,112.1z"/>
<path class="st7" d="M246.2,146.5h-50.4c-1.3,0-2.3-1-2.3-2.3V59.3h-4.6c-1.3,0-2.3,1-2.3,2.3V151c0,1.3,1,2.3,2.3,2.3h50.4v50.4
	c0,1.3,1,2.3,2.3,2.3h4.6V146.5z"/>
<g>
	<path class="st8" d="M243.4,153.3h-1.7c-1.3,0-2.3-1-2.3-2.3v-1.7c0-1.3,1-2.3,2.3-2.3c1.1,0,2,0.8,2.2,1.8c1,0.2,1.8,1.1,1.8,2.2
		C245.7,152.3,244.6,153.3,243.4,153.3z"/>
	<path class="st8" d="M267.7,153.3h-3.3c-1.3,0-2.3-1-2.3-2.3c0-1.3,1-2.3,2.3-2.3h3.3c1.3,0,2.3,1,2.3,2.3
		C270,152.3,269,153.3,267.7,153.3z M255.6,153.3h-3.3c-1.3,0-2.3-1-2.3-2.3c0-1.3,1-2.3,2.3-2.3h3.3c1.3,0,2.3,1,2.3,2.3
		C257.9,152.3,256.8,153.3,255.6,153.3z"/>
	<path class="st8" d="M278.3,153.3h-1.7c-1.3,0-2.3-1-2.3-2.3c0-1.1,0.8-2,1.8-2.2c0.2-1,1.1-1.8,2.2-1.8c1.3,0,2.3,1,2.3,2.3v1.7
		C280.6,152.3,279.6,153.3,278.3,153.3z"/>
	<path class="st8" d="M278.3,142.7c-1.3,0-2.3-1-2.3-2.3v-3.3c0-1.3,1-2.3,2.3-2.3c1.3,0,2.3,1,2.3,2.3v3.3
		C280.6,141.7,279.6,142.7,278.3,142.7z M278.3,130.6c-1.3,0-2.3-1-2.3-2.3v-3.3c0-1.3,1-2.3,2.3-2.3c1.3,0,2.3,1,2.3,2.3v3.3
		C280.6,129.5,279.6,130.6,278.3,130.6z"/>
	<path class="st8" d="M278.3,118.4c-1.1,0-2-0.8-2.2-1.8c-1-0.2-1.8-1.1-1.8-2.2c0-1.3,1-2.3,2.3-2.3h1.7c1.3,0,2.3,1,2.3,2.3v1.7
		C280.6,117.3,279.6,118.4,278.3,118.4z"/>
	<path class="st8" d="M267.7,116.7h-3.3c-1.3,0-2.3-1-2.3-2.3s1-2.3,2.3-2.3h3.3c1.3,0,2.3,1,2.3,2.3S269,116.7,267.7,116.7z
		 M255.6,116.7h-3.3c-1.3,0-2.3-1-2.3-2.3s1-2.3,2.3-2.3h3.3c1.3,0,2.3,1,2.3,2.3S256.8,116.7,255.6,116.7z"/>
	<path class="st8" d="M241.7,118.4c-1.3,0-2.3-1-2.3-2.3v-1.7c0-1.3,1-2.3,2.3-2.3h1.7c1.3,0,2.3,1,2.3,2.3c0,1.1-0.8,2-1.8,2.2
		C243.7,117.6,242.7,118.4,241.7,118.4z"/>
	<path class="st8" d="M241.7,142.7c-1.3,0-2.3-1-2.3-2.3v-3.3c0-1.3,1-2.3,2.3-2.3s2.3,1,2.3,2.3v3.3
		C243.9,141.7,242.9,142.7,241.7,142.7z M241.7,130.6c-1.3,0-2.3-1-2.3-2.3v-3.3c0-1.3,1-2.3,2.3-2.3s2.3,1,2.3,2.3v3.3
		C243.9,129.5,242.9,130.6,241.7,130.6z"/>
</g>
<path class="st7" d="M287.2,188.3c2.9-7.5,5.8-15.1,8.8-22.7c-3,0-5.9,0-8.9,0c0.1-0.3,0.2-0.5,0.2-0.7c2.8-6.7,5.6-13.4,8.4-20.1
	c0.2-0.4,0.4-0.6,0.9-0.6c2.9,0,5.8,0,8.7,0c0.2,0,0.4,0,0.6,0c-2.2,4.4-4.4,8.8-6.7,13.2c3.4,0,6.7,0,10.1,0
	C301.9,167.7,294.6,178,287.2,188.3C287.3,188.3,287.2,188.3,287.2,188.3z"/>
<path class="st7" d="M214,123.7c2.9-7.5,5.8-15.1,8.8-22.7c-3,0-5.9,0-8.9,0c0.1-0.3,0.2-0.5,0.2-0.7c2.8-6.7,5.6-13.4,8.4-20.1
	c0.2-0.4,0.4-0.6,0.9-0.6c2.9,0,5.8,0,8.7,0c0.2,0,0.4,0,0.6,0c-2.2,4.4-4.4,8.8-6.7,13.2c3.4,0,6.7,0,10.1,0
	C228.8,103.1,221.5,113.4,214,123.7C214.1,123.7,214,123.7,214,123.7z"/>
</svg>
