<?xml version="1.0" encoding="utf-8"?>
<!-- Generator: Adobe Illustrator 22.1.0, SVG Export Plug-In . SVG Version: 6.00 Build 0)  -->
<svg version="1.1" id="Слой_1" xmlns="http://www.w3.org/2000/svg" xmlns:xlink="http://www.w3.org/1999/xlink" x="0px" y="0px"
	 viewBox="0 0 522.8 431.7" style="enable-background:new 0 0 522.8 431.7;" xml:space="preserve">
<style type="text/css">
	.st0{fill:#2B2E36;}
	.st1{fill:#87868E;}
	.st2{fill:#4976F7;}
	.st3{fill:#AEB4B9;}
	.st4{fill:#5298F6;}
	.st5{fill:#EE4C5A;}
	.st6{fill:#F5C8A3;}
	.st7{fill:#EBB086;}
	.st8{fill:#363A42;}
</style>
<g>
	
		<ellipse transform="matrix(2.969576e-02 -0.9996 0.9996 2.969576e-02 -7.4455 527.378)" class="st0" cx="267.9" cy="267.5" rx="146.5" ry="155.6"/>
	<g>
		<path class="st1" d="M217.3,95.6h-37.2c-2.1,0-3.7-1.7-3.7-3.7V43.4h7.4v44.7h33.5V95.6z"/>
		<path class="st1" d="M303,65.8h-7.4V28.5c0-2.1,1.7-3.7,3.7-3.7H344v7.4h-41V65.8z"/>
		<path class="st1" d="M362.6,192.4h-7.4v-44.7h-33.5v-7.4h37.2c2.1,0,3.7,1.7,3.7,3.7V192.4z"/>
		<path class="st1" d="M243.4,211H195v-7.4h44.7V170h7.4v37.2C247.1,209.4,245.5,211,243.4,211z"/>
	</g>
	<path class="st2" d="M217.3,65.8h104.3V170H217.3V65.8z"/>
	<path class="st3" d="M198.7,28.5c0,10.3-8.3,18.6-18.6,18.6c-10.3,0-18.6-8.3-18.6-18.6s8.3-18.6,18.6-18.6
		C190.4,9.9,198.7,18.2,198.7,28.5z"/>
	<path class="st3" d="M377.5,28.5c0,10.3-8.3,18.6-18.6,18.6s-18.6-8.3-18.6-18.6s8.3-18.6,18.6-18.6S377.5,18.2,377.5,28.5z"/>
	<path class="st4" d="M321.6,144V170h-52.1v-17.8c-2,1.9-4.7,2.9-7.4,2.9c-6.2,0-11.2-5-11.2-11.2c0-6.2,5-11.2,11.2-11.2
		c2.8,0,5.4,1,7.4,2.9v-17.8h17.8c-1.9,2-2.9,4.7-2.9,7.4c0,6.2,5,11.2,11.2,11.2c6.2,0,11.2-5,11.2-11.2c0-2.8-1-5.4-2.9-7.4h17.8
		V144z"/>
	<path class="st4" d="M276.9,80.7c6.2,0,11.2,5,11.2,11.2c0,6.2-5,11.2-11.2,11.2c-2.8,0-5.4-1-7.4-2.9v17.8h-17.8
		c1.9-2,2.9-4.7,2.9-7.4c0-6.2-5-11.2-11.2-11.2c-6.2,0-11.2,5-11.2,11.2c0,2.8,1,5.4,2.9,7.4h-17.8V65.8h52.1v17.8
		C271.5,81.7,274.2,80.6,276.9,80.7z"/>
	<path class="st5" d="M355.2,24.8h7.4v7.4h-7.4V24.8z"/>
	<path class="st3" d="M198.7,207.3c0,10.3-8.3,18.6-18.6,18.6c-10.3,0-18.6-8.3-18.6-18.6s8.3-18.6,18.6-18.6
		C190.4,188.7,198.7,197,198.7,207.3z"/>
	<path class="st5" d="M176.4,203.6h7.4v7.4h-7.4V203.6z"/>
	<path class="st5" d="M176.4,24.8h7.4v7.4h-7.4V24.8z"/>
	<path class="st3" d="M377.5,207.3c0,10.3-8.3,18.6-18.6,18.6s-18.6-8.3-18.6-18.6s8.3-18.6,18.6-18.6S377.5,197,377.5,207.3z"/>
	<path class="st5" d="M355.2,203.6h7.4v7.4h-7.4V203.6z"/>
	<g>
		<g>
			<path class="st6" d="M412.2,168.8l-1.3-52.3c-0.6-11.7,8.1-21.7,19.7-22.9l17.9,113.1c0.2,14.2-4.1,28.1-12.4,39.6l-43.9,53.1
				c-4,4.9-6,11.2-5.6,17.5l1.2,15.7l-61.1-29.1l0.2-0.5c-4.8-23.8,4-48.4,23-63.6l3.5-2.8c5.5-4.4,9.9-9.9,12.9-16.2l16.8-35.2
				C388.4,174.2,400,167.6,412.2,168.8z"/>
			<path class="st6" d="M126.4,168.8c12.2-1.2,23.8,5.3,29.1,16.4l16.8,35.2c3,6.3,7.4,11.9,12.9,16.2l3.5,2.8
				c19,15.2,27.8,39.7,23,63.6l0.2,0.5l-61.1,29.1l1.2-15.7c0.5-6.3-1.5-12.6-5.6-17.5l-43.9-53.1c-8.3-11.5-12.7-25.4-12.4-39.6
				L108,93.6c11.2,1.1,19.7,10.5,19.8,21.8c0,0.4,0,0.7,0,1.1L126.4,168.8z"/>
			<path class="st7" d="M424.5,165.9c-8.4-4-18.1-4.5-26.9-1.4c-8.8,3.1-16,9.6-20,18.1l-16.8,35.2c-2.6,5.5-6.4,10.3-11.1,14.1
				l-3.5,2.8c-20.8,16.6-30.6,43.6-25.2,69.7c0.4,2.2,2,4,4.1,4.7c2.1,0.7,4.5,0.2,6.1-1.2c1.7-1.5,2.4-3.8,2-5.9
				c-4.4-21.5,3.6-43.8,20.8-57.5l3.5-2.8c6.2-5,11.2-11.3,14.6-18.4l16.8-35.2c4.1-8.7,13.3-13.8,22.8-12.9c0.5,0.1,1,0.1,1.5,0.2
				l-24.5,51.5c-1.4,3.1-0.1,6.8,3,8.2c3.1,1.5,6.8,0.2,8.3-2.9l27.6-57.9C428.9,171.1,427.6,167.4,424.5,165.9z"/>
			<path class="st7" d="M192.5,234.6l-3.5-2.8c-4.7-3.8-8.5-8.6-11.1-14.1l-16.8-35.2c-4-8.4-11.2-14.9-20-18.1
				c-8.8-3.1-18.5-2.6-26.9,1.4c-3.1,1.5-4.4,5.2-2.9,8.3l27.6,57.9c0.9,2,2.9,3.4,5.1,3.6c2.2,0.2,4.4-0.8,5.7-2.7
				c1.3-1.8,1.4-4.2,0.5-6.2l-24.5-51.5c0.5-0.1,1-0.2,1.5-0.2c9.6-0.9,18.7,4.2,22.8,12.9l16.8,35.2c3.4,7.2,8.4,13.5,14.6,18.4
				l3.5,2.8c17.2,13.7,25.2,35.9,20.8,57.5c-0.5,2.2,0.3,4.5,2,5.9c1.7,1.5,4,2,6.1,1.2c2.1-0.7,3.7-2.5,4.1-4.7
				C223.1,278.2,213.4,251.2,192.5,234.6z"/>
		</g>
		<path class="st3" d="M387.9,332.6l6.9,3.3l-18.4,38.6l-84.7-40.4l18.4-38.6l16.8,8L387.9,332.6z"/>
		<path class="st3" d="M150.8,332.6l61.1-29.1l16.8-8l18.4,38.6l-84.7,40.4l-18.4-38.6L150.8,332.6z"/>
	</g>
	<path class="st8" d="M247.4,308.7c6.9-18,13.9-36,20.9-54.2c-7.2,0-14,0-21.2,0c0.3-0.7,0.4-1.2,0.6-1.6c6.7-15.9,13.3-32,20-47.9
		c0.4-1,0.9-1.5,2-1.3c6.9,0,13.9,0,20.8,0c0.4,0,0.9,0,1.5,0c-5.3,10.5-10.5,20.9-15.9,31.4c8,0,15.9,0,24.1,0
		c-17.7,24.7-35.1,49.1-52.6,73.7C247.6,308.9,247.4,308.7,247.4,308.7z"/>
</g>
</svg>
