<?xml version="1.0" encoding="utf-8"?>
<!-- Generator: Adobe Illustrator 22.1.0, SVG Export Plug-In . SVG Version: 6.00 Build 0)  -->
<svg version="1.1" id="Слой_1" xmlns="http://www.w3.org/2000/svg" xmlns:xlink="http://www.w3.org/1999/xlink" x="0px" y="0px"
	 viewBox="0 0 522.8 431.7" style="enable-background:new 0 0 522.8 431.7;" xml:space="preserve">
<style type="text/css">
	.st0{fill:#2B2E36;}
	.st1{fill:#5298F6;}
	.st2{fill:#AEB4B9;}
	.st3{fill:#E6EBEC;}
	.st4{fill:#FFFFFF;}
	.st5{fill:#EE4C5A;}
</style>
<g>
	<path class="st0" d="M505.4,145.9H266.3V29.2c0-7.4,6.5-13.4,14.4-13.4H491c8,0,14.4,6,14.4,13.4L505.4,145.9L505.4,145.9z"/>
	<g>
		<path class="st1" d="M332.3,36.5h-45.3c-2.3,0-4.1-1.7-4.1-3.8s1.8-3.8,4.1-3.8h45.3c2.3,0,4.1,1.7,4.1,3.8S334.6,36.5,332.3,36.5
			"/>
		<path class="st1" d="M385.9,36.5h-37.1c-2.3,0-4.1-1.7-4.1-3.8s1.8-3.8,4.1-3.8h37.1c2.3,0,4.1,1.7,4.1,3.8S388.2,36.5,385.9,36.5
			"/>
		<path class="st1" d="M311.7,51.8h-24.7c-2.3,0-4.1-1.7-4.1-3.8c0-2.1,1.8-3.8,4.1-3.8h24.7c2.3,0,4.1,1.7,4.1,3.8
			C315.8,50.1,314,51.8,311.7,51.8"/>
		<path class="st1" d="M365.3,51.8h-37.1c-2.3,0-4.1-1.7-4.1-3.8c0-2.1,1.8-3.8,4.1-3.8h37.1c2.3,0,4.1,1.7,4.1,3.8
			C369.4,50.1,367.5,51.8,365.3,51.8"/>
		<path class="st1" d="M385.9,51.8h-4.1c-2.3,0-4.1-1.7-4.1-3.8c0-2.1,1.8-3.8,4.1-3.8h4.1c2.3,0,4.1,1.7,4.1,3.8
			C390,50.1,388.2,51.8,385.9,51.8"/>
	</g>
	<polygon class="st2" points="414.7,204.9 357,204.9 365.3,174.3 406.5,174.3 	"/>
	<g>
		<path class="st3" d="M491,174.3H280.8c-8,0-14.4-6-14.4-13.4v-17.2h239.1v17.2C505.4,168.3,499,174.3,491,174.3"/>
		<path class="st3" d="M322.2,107.1c-1.1,0-2.1-0.4-2.9-1.1c-1.6-1.5-1.6-3.9,0-5.4l11.9-11.1c1.6-1.5,4.2-1.5,5.8,0
			c1.6,1.5,1.6,3.9,0,5.4L325.1,106C324.3,106.7,323.3,107.1,322.2,107.1"/>
		<path class="st3" d="M367.1,107.1c-1.1,0-2.1-0.4-2.9-1.1l-11.9-11.1c-1.6-1.5-1.6-3.9,0-5.4c1.6-1.5,4.2-1.5,5.8,0l11.9,11.1
			c1.6,1.5,1.6,3.9,0,5.4C369.2,106.7,368.2,107.1,367.1,107.1"/>
		<path class="st3" d="M382.3,108.8c-1.1,0-2.1-0.4-2.9-1.1c-1.6-1.5-1.6-3.9,0-5.4l34.3-31.9c1.6-1.5,4.2-1.5,5.8,0
			c1.6,1.5,1.6,3.9,0,5.4l-34.3,31.9C384.4,108.4,383.3,108.8,382.3,108.8"/>
		<path class="st3" d="M461.9,99.5c-1.1,0-2.1-0.4-2.9-1.1l-24.3-22.5c-1.6-1.5-1.6-3.9,0-5.4c1.6-1.5,4.2-1.5,5.8,0l24.3,22.5
			c1.6,1.5,1.6,3.9,0,5.4C464,99.1,463,99.5,461.9,99.5"/>
	</g>
	<path class="st4" d="M357,86.3c0,6.3-5.5,11.5-12.4,11.5c-6.8,0-12.4-5.1-12.4-11.5c0-6.3,5.5-11.5,12.4-11.5
		C351.5,74.8,357,79.9,357,86.3"/>
	<path class="st4" d="M439.5,67.1c0,6.3-5.5,11.5-12.4,11.5c-6.8,0-12.4-5.1-12.4-11.5s5.5-11.5,12.4-11.5
		C433.9,55.7,439.5,60.8,439.5,67.1"/>
	<path class="st4" d="M480.7,105.4c0,6.3-5.5,11.5-12.4,11.5c-6.8,0-12.4-5.1-12.4-11.5s5.5-11.5,12.4-11.5
		C475.2,93.9,480.7,99.1,480.7,105.4"/>
	<path class="st5" d="M388.3,113.1c0,6.3-5.5,11.5-12.4,11.5c-6.8,0-12.4-5.1-12.4-11.5c0-6.3,5.5-11.5,12.4-11.5
		C382.7,101.6,388.3,106.7,388.3,113.1"/>
	<path class="st4" d="M328.2,113.1c0,6.3-5.5,11.5-12.4,11.5c-6.8,0-12.4-5.1-12.4-11.5c0-6.3,5.5-11.5,12.4-11.5
		C322.6,101.6,328.2,106.7,328.2,113.1"/>
	<path class="st0" d="M258.2,145.9H19.1V29.2c0-7.4,6.5-13.4,14.4-13.4h210.2c8,0,14.4,6,14.4,13.4L258.2,145.9L258.2,145.9z"/>
	<g>
		<path class="st5" d="M52.1,44.2H39.8c-2.3,0-4.1-1.7-4.1-3.8c0-2.1,1.8-3.8,4.1-3.8h12.4c2.3,0,4.1,1.7,4.1,3.8
			C56.2,42.5,54.4,44.2,52.1,44.2"/>
		<path class="st5" d="M109.8,44.2H68.6c-2.3,0-4.1-1.7-4.1-3.8c0-2.1,1.8-3.8,4.1-3.8h41.2c2.3,0,4.1,1.7,4.1,3.8
			C114,42.5,112.1,44.2,109.8,44.2"/>
		<path class="st5" d="M60.4,59.5H39.8c-2.3,0-4.1-1.7-4.1-3.8s1.8-3.8,4.1-3.8h20.6c2.3,0,4.1,1.7,4.1,3.8S62.6,59.5,60.4,59.5"/>
		<path class="st5" d="M89.2,59.5H76.9c-2.3,0-4.1-1.7-4.1-3.8s1.8-3.8,4.1-3.8h12.4c2.3,0,4.1,1.7,4.1,3.8S91.5,59.5,89.2,59.5"/>
		<path class="st5" d="M109.8,59.5h-4.1c-2.3,0-4.1-1.7-4.1-3.8s1.8-3.8,4.1-3.8h4.1c2.3,0,4.1,1.7,4.1,3.8S112.1,59.5,109.8,59.5"
			/>
		<path class="st5" d="M52.1,74.8H39.8c-2.3,0-4.1-1.7-4.1-3.8c0-2.1,1.8-3.8,4.1-3.8h12.4c2.3,0,4.1,1.7,4.1,3.8
			C56.2,73.1,54.4,74.8,52.1,74.8"/>
		<path class="st5" d="M109.8,74.8H68.6c-2.3,0-4.1-1.7-4.1-3.8c0-2.1,1.8-3.8,4.1-3.8h41.2c2.3,0,4.1,1.7,4.1,3.8
			C114,73.1,112.1,74.8,109.8,74.8"/>
		<path class="st5" d="M60.4,90.1H39.8c-2.3,0-4.1-1.7-4.1-3.8c0-2.1,1.8-3.8,4.1-3.8h20.6c2.3,0,4.1,1.7,4.1,3.8
			C64.5,88.4,62.6,90.1,60.4,90.1"/>
		<path class="st5" d="M89.2,90.1H76.9c-2.3,0-4.1-1.7-4.1-3.8c0-2.1,1.8-3.8,4.1-3.8h12.4c2.3,0,4.1,1.7,4.1,3.8
			C93.3,88.4,91.5,90.1,89.2,90.1"/>
		<path class="st5" d="M109.8,90.1h-4.1c-2.3,0-4.1-1.7-4.1-3.8c0-2.1,1.8-3.8,4.1-3.8h4.1c2.3,0,4.1,1.7,4.1,3.8
			C114,88.4,112.1,90.1,109.8,90.1"/>
		<path class="st5" d="M52.1,105.4H39.8c-2.3,0-4.1-1.7-4.1-3.8c0-2.1,1.8-3.8,4.1-3.8h12.4c2.3,0,4.1,1.7,4.1,3.8
			C56.2,103.7,54.4,105.4,52.1,105.4"/>
		<path class="st5" d="M109.8,105.4H68.6c-2.3,0-4.1-1.7-4.1-3.8c0-2.1,1.8-3.8,4.1-3.8h41.2c2.3,0,4.1,1.7,4.1,3.8
			C114,103.7,112.1,105.4,109.8,105.4"/>
		<path class="st5" d="M60.4,120.7H39.8c-2.3,0-4.1-1.7-4.1-3.8s1.8-3.8,4.1-3.8h20.6c2.3,0,4.1,1.7,4.1,3.8S62.6,120.7,60.4,120.7"
			/>
		<path class="st5" d="M89.2,120.7H76.9c-2.3,0-4.1-1.7-4.1-3.8s1.8-3.8,4.1-3.8h12.4c2.3,0,4.1,1.7,4.1,3.8S91.5,120.7,89.2,120.7"
			/>
		<path class="st5" d="M109.8,120.7h-4.1c-2.3,0-4.1-1.7-4.1-3.8s1.8-3.8,4.1-3.8h4.1c2.3,0,4.1,1.7,4.1,3.8
			S112.1,120.7,109.8,120.7"/>
	</g>
	<polygon class="st2" points="167.5,204.9 109.8,204.9 118.1,174.3 159.3,174.3 	"/>
	<path class="st3" d="M243.8,174.3H33.6c-8,0-14.4-6-14.4-13.4v-17.2h239.1v17.2C258.2,168.3,251.8,174.3,243.8,174.3"/>
	<g>
		<path class="st4" d="M243.1,68h-17v-6V51.9c0-14.6-11.1-27.4-26.3-30.4c-4.6-0.9-9.3-0.9-13.8,0c-15.2,3-26.3,15.8-26.3,30.4v10.2
			v6h-17c-1.6,0-2.9,1.2-2.9,2.7c0,1.5,1.3,2.7,2.9,2.7h100.5c1.6,0,2.9-1.2,2.9-2.7C246,69.3,244.7,68,243.1,68z M198.6,26.8
			c12.6,2.5,21.7,13.1,21.7,25.1v7.5h-54.8v-7.5c0-12,9.1-22.6,21.7-25.1C190.9,26,194.8,26,198.6,26.8z"/>
		<path class="st4" d="M225,106.5c-1-0.4-2.3-0.3-3.1,0.5l-28.8,24.1h-0.5L163.8,107c-0.9-0.7-2.1-0.9-3.1-0.5
			c-1,0.4-1.7,1.4-1.7,2.5v24.8c0,1.5,1.3,2.7,2.9,2.7h29.6c0,0,0,0,0,0h0h2.7h2.8h26.8c1.6,0,2.9-1.2,2.9-2.7V109
			C226.7,107.9,226,107,225,106.5z"/>
		<path class="st4" d="M172.8,99.4h5.1c6.1,0,11.2-4.1,12.1-9.8l1.1-7.1h3.4l1.1,7.1c0.9,5.7,6,9.8,12.1,9.8h5.1
			c6.3,0,11.6-4.4,12.2-10.3l1.3-12h-3.2h-29.5H192h-29.5h-3.2l1.3,12C161.2,94.9,166.5,99.4,172.8,99.4z"/>
	</g>
	<polygon class="st2" points="414.7,405.5 357,405.5 365.3,375.2 406.5,375.2 	"/>
	<path class="st0" d="M505.4,345H266.3V229.5c0-7.3,6.5-13.2,14.4-13.2H491c8,0,14.4,5.9,14.4,13.2L505.4,345L505.4,345z"/>
	<path class="st3" d="M491,375.2H280.8c-8,0-14.4-5.9-14.4-13.2v-17h239.1v17C505.4,369.3,499,375.2,491,375.2"/>
	<polygon class="st4" points="299.3,327.6 324,327.6 324,308.7 299.3,308.7 	"/>
	<polygon class="st4" points="336.4,327.6 361.1,327.6 361.1,308.7 336.4,308.7 	"/>
	<polygon class="st4" points="373.5,327.6 398.2,327.6 398.2,308.7 373.5,308.7 	"/>
	<polygon class="st1" points="410.6,327.6 435.3,327.6 435.3,308.7 410.6,308.7 	"/>
	<polygon class="st4" points="447.7,327.6 472.4,327.6 472.4,308.7 447.7,308.7 	"/>
	<g>
		<polygon class="st5" points="299.3,308.7 324,308.7 324,289.8 299.3,289.8 		"/>
		<polygon class="st5" points="336.4,308.7 361.1,308.7 361.1,274.6 336.4,274.6 		"/>
		<polygon class="st5" points="373.5,308.7 398.2,308.7 398.2,251.9 373.5,251.9 		"/>
		<polygon class="st5" points="410.6,308.7 435.3,308.7 435.3,278.4 410.6,278.4 		"/>
		<polygon class="st5" points="447.7,308.7 472.4,308.7 472.4,229.2 447.7,229.2 		"/>
	</g>
	<path class="st0" d="M258.2,345H19.1V229.5c0-7.3,6.5-13.2,14.4-13.2h210.2c8,0,14.4,5.9,14.4,13.2L258.2,345L258.2,345z"/>
	<path class="st3" d="M505.4,416.6H19.1c0-7,36.3-12.7,81-12.7h324.2C469.1,403.9,505.4,409.6,505.4,416.6"/>
	<path class="st3" d="M494.6,214.7h-467c0-6.7,34.8-12.2,77.8-12.2h311.3C459.7,202.5,494.6,207.9,494.6,214.7"/>
	<polygon class="st2" points="167.5,403.9 109.8,403.9 118.1,373.6 159.3,373.6 	"/>
	<path class="st3" d="M243.8,375.2H33.6c-8,0-14.4-5.9-14.4-13.2v-17h239.1v17C258.2,369.3,251.8,375.2,243.8,375.2"/>
	<polygon class="st5" points="64.5,329.8 89.2,329.8 89.2,269.2 64.5,269.2 	"/>
	<polygon class="st4" points="89.2,329.8 114,329.8 114,246.5 89.2,246.5 	"/>
	<polygon class="st5" points="114,329.8 138.7,329.8 138.7,280.6 114,280.6 	"/>
	<polygon class="st4" points="138.7,329.8 163.4,329.8 163.4,257.9 138.7,257.9 	"/>
	<polygon class="st5" points="163.4,329.8 188.2,329.8 188.2,231.4 163.4,231.4 	"/>
	<polygon class="st1" points="188.2,329.8 212.9,329.8 212.9,246.5 188.2,246.5 	"/>
	<path class="st3" d="M229.4,333.6H48c-2.3,0-4.1-1.7-4.1-3.8c0-2.1,1.8-3.8,4.1-3.8h181.4c2.3,0,4.1,1.7,4.1,3.8
		C233.5,331.9,231.7,333.6,229.4,333.6"/>
</g>
</svg>
