<?xml version="1.0" encoding="utf-8"?>
<!-- Generator: Adobe Illustrator 22.1.0, SVG Export Plug-In . SVG Version: 6.00 Build 0)  -->
<svg version="1.1" id="Слой_1" xmlns="http://www.w3.org/2000/svg" xmlns:xlink="http://www.w3.org/1999/xlink" x="0px" y="0px"
	 viewBox="0 0 522.8 431.7" style="enable-background:new 0 0 522.8 431.7;" xml:space="preserve">
<style type="text/css">
	.st0{fill:#2B2E36;}
	.st1{fill:#AFAFAF;}
	.st2{fill:#E4E5E6;}
	.st3{fill:#5298F6;}
	.st4{fill:#4976F7;}
	.st5{fill:#90DEE6;}
	.st6{fill:#AEB4B9;}
	.st7{fill:#EE3B47;}
	.st8{fill:#EE4C5A;}
</style>
<g>
	<circle class="st0" cx="266.1" cy="223.8" r="189.7"/>
	<path class="st1" d="M145.8,343.6c-2.1,0-3.9-1.7-3.9-3.9V72.2h-25.6c-2.1,0-3.9,1.7-3.9,3.9v259.1c10.4,14.3,22.6,27,36.5,37.9
		h214c2.1,0,3.9-1.7,3.9-3.9v-25.6L145.8,343.6L145.8,343.6z"/>
	<path class="st2" d="M127.2,76.1c0-2.1,1.7-3.9,3.9-3.9h-14.7c-2.1,0-3.9,1.7-3.9,3.9v259.1c4.5,6.3,9.5,12.2,14.7,17.9V76.1z"/>
	<path class="st1" d="M171.4,315.7c-2.1,0-3.9-1.7-3.9-3.9V44.9h-23.9c-2.1,0-3.9,1.7-3.9,3.9v293.1c0,2.1,1.7,3.9,3.9,3.9h246.6
		c2.1,0,3.9-1.7,3.9-3.9v-26.2L171.4,315.7L171.4,315.7z"/>
	<path class="st2" d="M153.7,341.9V48.8c0-2.1,1.7-3.9,3.9-3.9h-13.9c-2.1,0-3.9,1.7-3.9,3.9v293.1c0,2.1,1.7,3.9,3.9,3.9h13.9
		C155.4,345.8,153.7,344,153.7,341.9z"/>
	<path class="st2" d="M419.7,314c0,2.1-1.7,3.9-3.9,3.9H169.2c-2.1,0-3.9-1.7-3.9-3.9V20.9c0-2.1,1.7-3.9,3.9-3.9h246.6
		c2.1,0,3.9,1.7,3.9,3.9V314z"/>
	<path class="st2" d="M180.7,314V20.9c0-2.1,1.7-3.9,3.9-3.9h-15.4c-2.1,0-3.9,1.7-3.9,3.9V314c0,2.1,1.7,3.9,3.9,3.9h15.4
		C182.4,317.9,180.7,316.1,180.7,314z"/>
	<g>
		<path class="st3" d="M389.3,56.4h-53.9c-3.2,0-5.8-2.6-5.8-5.8c0-3.2,2.6-5.8,5.8-5.8h53.9c3.2,0,5.8,2.6,5.8,5.8
			C395.1,53.8,392.5,56.4,389.3,56.4z"/>
		<path class="st3" d="M389.3,76.1h-53.9c-3.2,0-5.8-2.6-5.8-5.8c0-3.2,2.6-5.8,5.8-5.8h53.9c3.2,0,5.8,2.6,5.8,5.8
			C395.1,73.5,392.5,76.1,389.3,76.1z"/>
		<path class="st3" d="M389.3,95.9h-53.9c-3.2,0-5.8-2.6-5.8-5.8c0-3.2,2.6-5.8,5.8-5.8h53.9c3.2,0,5.8,2.6,5.8,5.8
			C395.1,93.3,392.5,95.9,389.3,95.9z"/>
		<path class="st3" d="M389.3,115.6h-53.9c-3.2,0-5.8-2.6-5.8-5.8c0-3.2,2.6-5.8,5.8-5.8h53.9c3.2,0,5.8,2.6,5.8,5.8
			C395.1,113,392.5,115.6,389.3,115.6z"/>
	</g>
	<g>
		<path class="st4" d="M288.8,253.5h-90.7c-3.2,0-5.8-2.6-5.8-5.8c0-3.2,2.6-5.8,5.8-5.8h90.7c3.2,0,5.8,2.6,5.8,5.8
			C294.6,250.9,292,253.5,288.8,253.5z"/>
		<path class="st4" d="M288.8,273.2h-90.7c-3.2,0-5.8-2.6-5.8-5.8c0-3.2,2.6-5.8,5.8-5.8h90.7c3.2,0,5.8,2.6,5.8,5.8
			C294.6,270.6,292,273.2,288.8,273.2z"/>
		<path class="st4" d="M288.8,293h-90.7c-3.2,0-5.8-2.6-5.8-5.8c0-3.2,2.6-5.8,5.8-5.8h90.7c3.2,0,5.8,2.6,5.8,5.8
			C294.6,290.4,292,293,288.8,293z"/>
	</g>
	<g>
		<path class="st4" d="M389.3,150.1h-82.7c-3.2,0-5.8-2.6-5.8-5.8c0-3.2,2.6-5.8,5.8-5.8h82.7c3.2,0,5.8,2.6,5.8,5.8
			C395.1,147.5,392.5,150.1,389.3,150.1z"/>
		<path class="st4" d="M389.3,169.8h-82.7c-3.2,0-5.8-2.6-5.8-5.8c0-3.2,2.6-5.8,5.8-5.8h82.7c3.2,0,5.8,2.6,5.8,5.8
			C395.1,167.2,392.5,169.8,389.3,169.8z"/>
		<path class="st4" d="M389.3,189.6h-82.7c-3.2,0-5.8-2.6-5.8-5.8c0-3.2,2.6-5.8,5.8-5.8h82.7c3.2,0,5.8,2.6,5.8,5.8
			C395.1,187,392.5,189.6,389.3,189.6z"/>
		<path class="st4" d="M389.3,209.3h-82.7c-3.2,0-5.8-2.6-5.8-5.8c0-3.2,2.6-5.8,5.8-5.8h82.7c3.2,0,5.8,2.6,5.8,5.8
			C395.1,206.7,392.5,209.3,389.3,209.3z"/>
		<path class="st4" d="M187.7,184.1h22.6c0-12.5,10.1-22.6,22.6-22.6v-22.6C208,138.8,187.7,159.1,187.7,184.1z"/>
	</g>
	<path class="st5" d="M244.4,127.4V150c12.5,0,22.6,10.1,22.6,22.6h22.6C289.7,147.6,269.5,127.4,244.4,127.4z"/>
	<g>
		<path class="st6" d="M255.6,184.1c0,12.5-10.1,22.6-22.6,22.6c-12.5,0-22.6-10.1-22.6-22.6h-22.6c0,25,20.3,45.3,45.3,45.3
			c25,0,45.3-20.3,45.3-45.3H255.6z"/>
		<path class="st6" d="M213.7,106.2V52.1c0-1.3-1-2.3-2.3-2.3h-14.1c-1.3,0-2.3,1-2.3,2.3v54.1H213.7z"/>
	</g>
	<path class="st7" d="M244,106.2V66.8c0-1.3-1-2.3-2.3-2.3h-14.1c-1.3,0-2.3,1-2.3,2.3v39.4H244z"/>
	<path class="st3" d="M274.3,106.2V84.7c0-1.3-1-2.3-2.3-2.3h-14.1c-1.3,0-2.3,1-2.3,2.3v21.6H274.3z"/>
	<path class="st5" d="M304.6,106.2V52.1c0-1.3-1-2.3-2.3-2.3h-14.1c-1.3,0-2.3,1-2.3,2.3v54.1H304.6z"/>
	<path class="st8" d="M361.8,264.6c0-1.3,1-2.3,2.3-2.3h10.5v-26c0-2.1-1.7-3.9-3.9-3.9h-34.9c-2.1,0-3.9,1.7-3.9,3.9v34.9
		c0,2.1,1.7,3.9,3.9,3.9h26V264.6z"/>
	<path class="st1" d="M389.3,285.9c0,2.1-1.7,3.9-3.9,3.9h-21.3c-2.1,0-3.9-1.7-3.9-3.9v-21.3c0-2.1,1.7-3.9,3.9-3.9h21.3
		c2.1,0,3.9,1.7,3.9,3.9V285.9z"/>
	<path class="st1" d="M308.6,115.6H191c-3.2,0-5.8-2.6-5.8-5.8c0-3.2,2.6-5.8,5.8-5.8h117.6c3.2,0,5.8,2.6,5.8,5.8
		C314.4,113,311.8,115.6,308.6,115.6z"/>
</g>
<g>
</g>
<g>
</g>
<g>
</g>
<g>
</g>
<g>
</g>
</svg>
