<?xml version="1.0" encoding="utf-8"?>
<!-- Generator: Adobe Illustrator 22.1.0, SVG Export Plug-In . SVG Version: 6.00 Build 0)  -->
<svg version="1.1" id="Слой_1" xmlns="http://www.w3.org/2000/svg" xmlns:xlink="http://www.w3.org/1999/xlink" x="0px" y="0px"
	 viewBox="0 0 522.8 431.7" style="enable-background:new 0 0 522.8 431.7;" xml:space="preserve">
<style type="text/css">
	.st0{fill:#6B6B6B;}
	.st1{fill:#5298F6;}
	.st2{fill:#E4E4E4;}
	.st3{fill:#2B2E36;}
	.st4{fill:#979797;}
	.st5{fill:#4975F7;}
	.st6{fill:#AFAFAF;}
	.st7{fill:#E4E5E6;}
	.st8{fill:#EE4C5A;}
</style>
<g>
	<polygon class="st0" points="281.3,366.9 317.5,270.4 224.3,270.4 	"/>
	<rect x="84.7" y="125.8" class="st1" width="181" height="221.8"/>
	<rect x="64" y="106.5" class="st2" width="181" height="202.5"/>
	<polygon class="st3" points="281.3,366.9 224.3,270.4 17.4,270.4 74.3,366.9 	"/>
	<path class="st3" d="M105.4,140.2c-8.6,0-15.5-6.5-15.5-14.5v-4.8h10.3v4.8c0,2.7,2.3,4.8,5.2,4.8s5.2-2.2,5.2-4.8v-24.1
		c0-5.3-4.6-9.6-10.3-9.6c-5.7,0-10.3,4.3-10.3,9.6v4.8H79.5v-4.8c0-10.7,9.3-19.3,20.7-19.3s20.7,8.6,20.7,19.3v24.1
		C120.9,133.7,113.9,140.2,105.4,140.2z"/>
	<g>
		<rect x="95" y="202.9" class="st4" width="10.3" height="9.6"/>
		<rect x="115.7" y="202.9" class="st4" width="108.6" height="9.6"/>
		<rect x="84.7" y="222.2" class="st4" width="139.7" height="9.6"/>
		<rect x="84.7" y="241.5" class="st4" width="119" height="9.6"/>
		<rect x="218.3" y="125.8" class="st4" width="10.6" height="9.6"/>
		<rect x="219.2" y="145" class="st4" width="10.3" height="9.6"/>
	</g>
	<path class="st5" d="M256.3,275.7l12.1,24.1c1.7,3.3,5.1,5.5,8.8,5.5h39.5v-29.6H256.3z"/>
	<path class="st3" d="M346.3,38.3v50h-39.5v-50c0-5.5,4.3-9.9,9.9-9.9h19.7C341.9,28.5,346.3,32.8,346.3,38.3z"/>
	<path class="st3" d="M346.3,38.3v50h-19.7V28.5h9.9C341.9,28.5,346.3,32.8,346.3,38.3z"/>
	<path class="st1" d="M346.3,186.9v49.3c0,5.5-4.3,9.9-9.9,9.9h-19.7c-5.5,0-9.9-4.3-9.9-9.9v-49.3H346.3z"/>
	<path class="st5" d="M326.5,186.9h19.7v49.3c0,5.5-4.3,9.9-9.9,9.9h-9.9V186.9z"/>
	<path class="st5" d="M405.4,108h-98.6v39.5h98.6c32.7,0,59.2,26.5,59.2,59.2s-26.5,59.2-59.2,59.2h-59.2l-19.7,19.7l19.7,19.7h59.2
		c54.5,0,98.6-44.2,98.6-98.6S459.9,108,405.4,108z"/>
	<path class="st6" d="M306.8,265.8H218c-5.5,0-9.9,4.4-9.9,9.9c0,5.5,4.4,9.9,9.9,9.9h108.5L306.8,265.8z"/>
	<path class="st6" d="M356.1,68.6h-59.2c-5.5,0-9.9,4.3-9.9,9.9v118.4c0,5.5,4.3,9.9,9.9,9.9h59.2c5.5,0,9.9-4.3,9.9-9.9V78.4
		C366,72.9,361.7,68.6,356.1,68.6z"/>
	<path class="st7" d="M366,78.4v118.4c0,5.5-4.3,9.9-9.9,9.9h-29.6V68.6h29.6C361.7,68.6,366,72.9,366,78.4z"/>
	<path class="st6" d="M306.8,265.8h39.5v89.4h-39.5V265.8z"/>
	<path class="st7" d="M326.5,265.8h19.7v89.4h-19.7V265.8z"/>
	<path class="st3" d="M405.4,356.1c0,6-4.3,10.7-9.9,10.7H257.5c-5.5,0-9.9-4.7-9.9-10.7c0-6,4.3-10.7,9.9-10.7h138.1
		C401.1,345.4,405.4,350.1,405.4,356.1z"/>
	<path class="st3" d="M405.4,355.3c0,5.5-4.3,9.9-9.9,9.9h-69v-19.7h69C401.1,345.4,405.4,349.7,405.4,355.3z"/>
	<path class="st8" d="M138.4,192.7c5-13.2,10.2-26.3,15.3-39.7c-5.2,0-10.3,0-15.5,0c0.2-0.5,0.3-0.9,0.4-1.2
		c4.9-11.7,9.7-23.5,14.7-35.1c0.3-0.7,0.6-1.1,1.5-1c5,0,10.2,0,15.2,0c0.3,0,0.6,0,1.1,0c-3.9,7.7-7.7,15.3-11.7,23
		c5.9,0,11.7,0,17.7,0c-13,18.1-25.7,36-38.6,54C138.5,192.8,138.4,192.7,138.4,192.7z"/>
</g>
<g>
</g>
<g>
</g>
<g>
</g>
<g>
</g>
<g>
</g>
</svg>
