<?xml version="1.0" encoding="utf-8"?>
<!-- Generator: Adobe Illustrator 22.1.0, SVG Export Plug-In . SVG Version: 6.00 Build 0)  -->
<svg version="1.1" id="Слой_1" xmlns="http://www.w3.org/2000/svg" xmlns:xlink="http://www.w3.org/1999/xlink" x="0px" y="0px"
	 viewBox="0 0 522.8 431.7" style="enable-background:new 0 0 522.8 431.7;" xml:space="preserve">
<style type="text/css">
	.st0{fill:none;stroke:#424A60;stroke-width:11;stroke-linecap:round;stroke-miterlimit:10;}
	.st1{fill:#3A556A;}
	.st2{fill:#6B6B6B;}
	.st3{fill:#2B2E36;}
	.st4{fill:#5298F6;}
	.st5{fill:#AEB4B9;}
	.st6{fill:#4976F7;}
	.st7{fill:#EE4C5A;}
	.st8{fill:#C32B42;}
</style>
<path class="st0" d="M358.3,10.3l-88.5,287.1c-3.6,11.7-16.1,18.3-27.8,14.7c-11.7-3.6-18.3-16.1-14.7-27.8"/>
<path class="st1" d="M351.5,171v214.2H44.4V171c0-4.2,3.4-8.1,8.1-8.1h291.4C348.1,162.9,351.5,166.3,351.5,171z"/>
<rect x="28.3" y="384.7" class="st2" width="339.3" height="22.1"/>
<rect x="63.1" y="179.9" class="st3" width="269.7" height="187.9"/>
<path class="st4" d="M314.1,153.8c24.2-15.8,52.7-7,63.8,19.7c24.2-15.8,52.7-7,63.8,19.7c21.7-70.5-17.8-145.2-88.3-166.9
	S208.1,44,186.4,114.5c24.2-15.8,52.7-7,63.8,19.7C274.4,118.3,303,127.1,314.1,153.8z"/>
<g>
	<path class="st4" d="M138.1,291.8l-6.8,15.3h-11.9l29.7-67H161l29.7,67h-11.9l-6.8-15.3H138.1z M167,281.6l-12.3-27.6l-12.3,27.6
		H167z"/>
	<path class="st4" d="M245,246c4.7,3.8,6.8,9.8,6.8,17.8c0,8.1-2.5,14-7.2,17.8c-4.7,3.8-11.9,5.5-22.1,5.5h-11.9v19.5h-11.5v-66.6
		h22.9C232.7,240.1,240.4,242.2,245,246z M237,273.6c2.1-2.5,3.4-5.9,3.4-10.6c0-4.7-1.3-8.1-4.2-9.8c-3-2.1-7.2-3-13.6-3h-11.5V277
		h13.1C230.6,277.4,234.8,276.1,237,273.6z"/>
	<path class="st4" d="M265.4,240.1h11v67h-11.5v-67H265.4z"/>
</g>
<rect x="88.5" y="206.6" class="st5" width="23.8" height="13.1"/>
<rect x="126.7" y="206.6" class="st5" width="178.1" height="13.1"/>
<rect x="88.7" y="328" class="st5" width="178.1" height="13.1"/>
<g>
	<path class="st6" d="M321.7,339.9c0.5-1.7,0.7-3.5,0.7-5.4s-0.2-3.6-0.7-5.4l3.3-3c0.5-0.5,0.7-1.3,0.4-1.9l-3.5-6
		c-0.4-0.6-1.1-1-1.8-0.7L316,319c-2.6-2.4-5.8-4.2-9.3-5.2l-0.8-4.3c-0.1-0.7-0.7-1.2-1.4-1.2h-6.9c-0.7,0-1.3,0.5-1.4,1.2
		l-0.8,4.3c-3.6,1-6.7,2.9-9.2,5.4l-4.2-1.4c-0.7-0.2-1.4,0-1.8,0.7l-3.7,6c-0.4,0.6-0.2,1.4,0.4,1.9l3.2,2.9
		c-0.5,1.7-0.7,3.5-0.7,5.4c0,1.9,0.2,3.6,0.7,5.4l-3.3,3c-0.5,0.5-0.7,1.3-0.4,1.9l3.5,6c0.4,0.6,1.1,1,1.8,0.7l4.2-1.4
		c2.5,2.5,5.7,4.3,9.2,5.4l0.8,4.3c0.1,0.7,0.7,1.2,1.4,1.2h6.9c0.7,0,1.3-0.5,1.4-1.2l0.8-4.3c3.6-1,6.7-2.9,9.2-5.4l4.2,1.4
		c0.7,0.2,1.4,0,1.8-0.7l3.5-6c0.4-0.6,0.2-1.4-0.4-1.9L321.7,339.9z M300.8,349.8c-8.3,0-15.3-6.8-15.3-15.3s6.8-15.3,15.3-15.3
		c8.3,0,15.3,6.8,15.3,15.3S309.2,349.8,300.8,349.8z"/>
	<g>
		<path class="st4" d="M300.8,350.7c-8.9,0-16.2-7.3-16.2-16.2s7.3-16.2,16.2-16.2c8.9,0,16.2,7.3,16.2,16.2
			S309.8,350.7,300.8,350.7z M300.8,320.1c-7.9,0-14.4,6.4-14.4,14.4s6.4,14.4,14.4,14.4c8,0,14.4-6.4,14.4-14.4
			S308.7,320.1,300.8,320.1z"/>
		<circle class="st4" cx="300.8" cy="334.5" r="7.7"/>
	</g>
</g>
<path class="st7" d="M487.2,80.8C487.2,80.8,487.2,80.7,487.2,80.8l11.2-51.9c0-0.2,0-0.4-0.2-0.6c-0.2-0.1-0.4-0.2-0.6-0.1
	l-48.8,20.7c0,0,0,0-0.1,0c-6.4,3.7-10.9,9.6-12.8,16.7c-1.9,7.1-0.9,14.5,2.7,20.9c1.5,2.6,3.4,4.9,5.7,6.9c0,0,0,0,0,0
	c0,0,0,0,0,0c2.4,1.8,5,3.3,7.9,4.3c7,2.4,14.4,2,21-1.3C479.8,93.3,484.8,87.7,487.2,80.8z"/>
<g>
	<path class="st8" d="M448.7,91.1c-0.8-8.2,1.6-16.2,6.7-22.6c0,0,0,0,0.1-0.1l41.6-40.1l-48.4,20.6c0,0,0,0-0.1,0
		c-6.4,3.7-10.9,9.6-12.8,16.7c-1.9,7.1-0.9,14.5,2.7,20.9c1.5,2.6,3.4,4.9,5.7,6.9c0,0,0,0,0,0c0,0,0,0,0,0
		c1.7,1.3,3.6,2.5,5.6,3.4C449.3,95,448.9,93.1,448.7,91.1z"/>
	<path class="st8" d="M508.3,114.6C508.3,114.6,508.3,114.5,508.3,114.6l5.5-25.6c0-0.2,0-0.4-0.2-0.6c-0.2-0.1-0.4-0.2-0.6-0.1
		l-24.1,10.2c0,0,0,0-0.1,0c-3.2,1.9-5.5,4.8-6.5,8.4c-1,3.6-0.5,7.3,1.4,10.5c0.8,1.3,1.7,2.5,2.9,3.5c0,0,0,0,0,0c0,0,0,0,0,0
		c1.2,0.9,2.5,1.7,4,2.2C497.9,125.7,505.8,121.8,508.3,114.6z"/>
</g>
<path class="st7" d="M508.3,114.6C508.3,114.6,508.3,114.5,508.3,114.6l5.5-25.6c0-0.2,0-0.4-0.2-0.6c0,0,0,0,0,0l-21.2,18.2
	c0,0,0,0-0.1,0.1c-2.8,3-4.2,6.9-4,11c0.1,1.7,0.5,3.4,1.1,5c0.4,0.2,0.8,0.3,1.2,0.5C497.9,125.7,505.8,121.8,508.3,114.6z"/>
<path class="st8" d="M466.4,127.6l3.7-17c0-0.2,0-0.4-0.2-0.6c-0.2-0.1-0.4-0.2-0.6-0.1l-16,6.8c0,0,0,0-0.1,0
	c-4.5,2.6-6.1,8.4-3.5,12.9c0.5,0.9,1.2,1.7,1.9,2.4c0,0,0,0,0,0c0,0,0,0,0,0c0.8,0.6,1.7,1.1,2.7,1.5
	C459.3,135.2,464.7,132.6,466.4,127.6C466.4,127.6,466.4,127.6,466.4,127.6z"/>
<path class="st7" d="M466.4,127.6C466.4,127.6,466.4,127.6,466.4,127.6l3.7-17.1c0-0.2,0-0.4-0.2-0.6c0,0-0.1-0.1-0.2-0.1
	l-14.9,12.8c0,0,0,0-0.1,0.1c-2.5,2.7-3.3,6.4-2.5,9.7c0.6,0.4,1.3,0.8,2.1,1C459.3,135.2,464.7,132.6,466.4,127.6z"/>
<g>
	<polygon class="st3" points="367.2,406.8 28.7,406.8 52,414 343.8,414 	"/>
	<rect x="174.2" y="393.2" class="st3" width="47.5" height="5.1"/>
</g>
</svg>
