<?xml version="1.0" encoding="utf-8"?>
<!-- Generator: Adobe Illustrator 22.1.0, SVG Export Plug-In . SVG Version: 6.00 Build 0)  -->
<svg version="1.1" id="Слой_1" xmlns="http://www.w3.org/2000/svg" xmlns:xlink="http://www.w3.org/1999/xlink" x="0px" y="0px"
	 viewBox="0 0 522.8 431.7" style="enable-background:new 0 0 522.8 431.7;" xml:space="preserve">
<style type="text/css">
	.st0{fill:#E4E4E4;}
	.st1{fill:#979797;}
	.st2{fill:#AFAFAF;}
	.st3{fill:#2B2E36;}
	.st4{fill:#5AD296;}
	.st5{fill:#508FF6;}
	.st6{fill:#4975F7;}
	.st7{fill:#5298F6;}
	.st8{fill:#BBC1C5;}
	.st9{fill:#EE4C5A;}
	.st10{fill:#E4E5E6;}
	.st11{fill:#FFFFFF;}
</style>
<circle class="st0" cx="226.3" cy="183.3" r="167.4"/>
<path class="st1" d="M254.4,231.5h172.4v21.6H254.4V231.5z"/>
<path class="st2" d="M254.4,113h172.4v21.6H254.4V113z"/>
<path class="st3" d="M238.2,134.5H443v97H238.2V134.5z"/>
<path class="st3" d="M238.2,253.1H443v97H238.2V253.1z"/>
<path class="st3" d="M238.2,16H443v97H238.2V16z"/>
<g>
	<path class="st4" d="M254.4,59.1h43.1v10.8h-43.1V59.1z"/>
	<path class="st4" d="M308.3,59.1H319v10.8h-10.8V59.1z"/>
	<path class="st4" d="M254.4,177.6h43.1v10.8h-43.1V177.6z"/>
	<path class="st4" d="M308.3,177.6H319v10.8h-10.8V177.6z"/>
	<path class="st4" d="M254.4,296.2h43.1v10.8h-43.1V296.2z"/>
	<path class="st4" d="M308.3,296.2H319v10.8h-10.8V296.2z"/>
</g>
<g>
	<path class="st3" d="M243.2,126.5c-0.7-0.9-4.6-5.4-12.3-8.3c-3.2-1-10.8-2-18.9-3.6l-12.2-3.1c-4.1-1.3-7.6-2.9-10.1-4.9
		c2.3-2.4,4.4-5.2,6.3-8.5c6.1-10.5,8.3-22.7,8.3-30.7c0-0.1-0.1-11.8-0.3-13.3c-0.1-1.1-0.3-2.2-0.6-3.3c5.3-0.1,9.5-4.4,9.5-9.7
		c0-5.4-4.3-9.7-9.7-9.7h-3.1c-4.4-9.2-13.9-15.5-24.7-15.5h-13.8c-10.9,0-20.3,6.3-24.7,15.5H134c-5.4,0-9.7,4.3-9.7,9.7
		c0,5.3,4.3,9.6,9.5,9.7c-0.2,0.7-0.3,1.5-0.5,2.3c-0.3,2-0.4,14.3-0.4,14.4c0,8,2.2,20.2,8.3,30.7c1.9,3.3,4,6.1,6.3,8.5
		c-2.5,2-6,3.6-10.1,4.9l-12.2,3.1c-8.1,1.6-15.7,2.6-18.9,3.6c-7.7,2.9-11.6,7.4-12.3,8.3c-14.2,21.1-15.8,68.4-15.8,68.9
		c0.1,6.3,2,8.4,2.6,8.7c31.6,14.1,68.9,17.6,87.1,17.6c0.2,0,0.4,0,0.5,0c0.2,0,0.4,0,0.5,0c18.3,0,55.5-3.6,87.1-17.6
		c0.6-0.3,2.5-2.4,2.6-8.7C259,194.9,257.4,147.6,243.2,126.5z M152.7,52.5c-5.8,0-11,2.1-14.6,5.3c0.1-1.9,0.1-3.5,0.2-3.9
		c0.2-1,0.4-2,0.7-3h59.5c0.4,1.3,0.6,2.6,0.8,3.9c0,0.3,0.1,1.5,0.1,3.1c-3.5-3.3-8.8-5.3-14.6-5.3L152.7,52.5L152.7,52.5
		L152.7,52.5z M164.2,67.8c0,3.1-8.2,8.6-16.6,8.6c-5.9,0-8.5-2.6-8.5-8.6c0-4.6,5.7-8.6,12.5-8.6C158.5,59.3,164.2,63.2,164.2,67.8
		z M185.7,59.3c6.8,0,12.5,3.9,12.5,8.6c0,5.9-2.6,8.6-8.5,8.6c-8.4,0-16.6-5.4-16.6-8.6C173.2,63.2,178.9,59.3,185.7,59.3z
		 M145.6,95.7c-2.8-4.8-4.7-9.9-5.9-14.8c2.3,1.4,5.2,2.2,8.9,2.2c7.3,0,15.4-4.1,20.3-4.1c4.9,0,12.6,4.1,19.9,4.1
		c3.7,0,6.6-0.8,8.9-2.2c-1.2,4.9-3.1,10.1-5.9,14.8c-4,6.9-11.3,15.2-23.1,15.2S149.6,102.6,145.6,95.7z"/>
</g>
<path class="st5" d="M306.8,180.1c0,32.9,26.6,59.5,59.5,59.5s59.5-26.6,59.5-59.5h11.9l-23-27.8l-23,27.8h15.1
	c0,18.5-12.5,34.7-30.5,39.3c-18,4.6-36.8-3.6-45.6-19.9c-8.9-16.3-5.6-36.5,8-49.1c13.6-12.6,34-14.4,49.6-4.4l6.8-6.8l6.8-6.8
	c-18-13.5-42.1-15.6-62.3-5.5C319.5,137,306.8,157.6,306.8,180.1z"/>
<g>
	<g>
		<path id="Shape" class="st6" d="M247.7,279.7l11.8,19.9c2.2,3.6,1.5,8.3-1.7,11.1c-0.5,0.4-0.9,0.8-1.5,1.1L225.6,330
			c-0.5,0.3-1.1,0.6-1.7,0.8c-4,1.4-8.4-0.3-10.6-3.9l-11.8-20"/>
		<path id="Shape_1_" class="st7" d="M257.8,310.8l-16.9,10l-16.2-27.5l23-13.6l11.8,19.9C261.6,303.3,261,307.9,257.8,310.8z"/>
		<path id="Shape_2_" class="st0" d="M257.8,310.8c6.8,8,12.9,16.6,18.2,25.7c18.8,31.8,25.5,62.7,14.8,68.9s-34.4-14.4-53.2-46.2
			c-5.4-9-10-18.5-13.7-28.3"/>
		<circle id="Oval" class="st8" cx="176.9" cy="212.5" r="97.6"/>
		<path id="Shape_3_" class="st9" d="M154.8,298.4c-47.4-12.2-76-60.6-63.8-108s60.6-76,108-63.8s76,60.6,63.8,108
			C250.5,282,202.2,310.5,154.8,298.4z"/>
		<path id="Shape_4_" class="st2" d="M254.2,232.3c-9.3,36.1-42.3,61-79.5,60s-68.8-27.7-76.1-64.2s11.7-73.3,45.7-88.5
			s74-4.8,96.4,25C255.2,184,260.2,208.9,254.2,232.3z"/>
		<path id="Shape_5_" class="st10" d="M245.2,217.2c-7.6,29.7-31.6,52.4-61.7,58.4s-60.9-5.8-79.3-30.4
			c-16.7-37.1-2.9-80.8,32.1-101.5s80-11.7,104.4,20.8C248.2,181.1,249.8,199.7,245.2,217.2z"/>
	</g>
	<path id="Shape_7_" class="st1" d="M290.9,405.4L241,321l15.4-9.1c0.5-0.3,1-0.7,1.5-1.1c6.8,8,12.9,16.6,18.2,25.7
		C294.9,368.3,301.5,399.1,290.9,405.4z"/>
</g>
<circle class="st11" cx="216.4" cy="168.5" r="14.8"/>
<g>
</g>
<g>
</g>
<g>
</g>
<g>
</g>
<g>
</g>
</svg>
