<svg id="Слой_1" data-name="Слой 1" xmlns="http://www.w3.org/2000/svg" viewBox="0 0 437.92 412.95"><defs><style>.cls-1{fill:#2b2e36;}.cls-2{fill:#464655;}.cls-3{fill:#bcc6da;}.cls-4{fill:#adb9ce;}.cls-5{fill:#94a3b7;}.cls-6{fill:#e2e8f4;}.cls-7{fill:#d8d5da;}.cls-8{fill:#eaeaea;}.cls-9{fill:#d4b04e;}.cls-10{fill:#f9d98e;}.cls-11{fill:#293b44;}.cls-12{fill:#e4e5e6;}.cls-13{fill:#5298f6;}.cls-14{fill:#eaedef;}.cls-15{fill:#cdd6da;}.cls-16{fill:#63add9;}.cls-17{fill:#ef666a;}.cls-18{fill:#59d9ca;}.cls-19{fill:#fff;}.cls-20{fill:#468abc;}.cls-21{fill:#4e5366;opacity:0.5;isolation:isolate;}.cls-22{fill:#3d91b8;}.cls-23{fill:#e4e7ed;}.cls-24{fill:#474c5b;}.cls-25{fill:#90dee6;}.cls-26{fill:#ee4c5a;}</style></defs><title>icon9</title><ellipse class="cls-1" cx="173.61" cy="375.83" rx="144.26" ry="37.11"/><path class="cls-2" d="M390.19,105.42H73.33a11.73,11.73,0,0,0-11.74,11.73V304.92H401.92V117.15A11.73,11.73,0,0,0,390.19,105.42Zm-5.87,181.9H79.19V123H384.32Z" transform="translate(-61.59 -7.33)"/><path class="cls-3" d="M61.59,328.39a11.73,11.73,0,0,0,11.74,11.74H390.19a11.73,11.73,0,0,0,11.73-11.74V304.92H61.59Zm170.17-14.67a8.81,8.81,0,1,1-8.8,8.81A8.8,8.8,0,0,1,231.76,313.72Z" transform="translate(-61.59 -7.33)"/><polygon class="cls-4" points="118.09 373.88 222.24 373.88 218.58 344.54 121.76 344.54 118.09 373.88"/><path class="cls-3" d="M179,381.2a5.87,5.87,0,1,0,0,11.74H284.57a5.87,5.87,0,0,0,0-11.74H179Z" transform="translate(-61.59 -7.33)"/><polygon class="cls-5" points="121.76 344.54 218.58 344.54 217.11 332.8 123.22 332.8 121.76 344.54"/><circle class="cls-5" cx="170.17" cy="315.2" r="8.8"/><path class="cls-6" d="M360.85,155.29a2.93,2.93,0,0,0-2.93-2.93h-5.87a2.94,2.94,0,1,0,0,5.87h5.87A2.94,2.94,0,0,0,360.85,155.29Z" transform="translate(-61.59 -7.33)"/><path class="cls-1" d="M79.21,118.52H384.32v175H79.21Z" transform="translate(-61.59 -7.33)"/><path class="cls-7" d="M101.09,131.41h76.29V282.34H101.09Z" transform="translate(-61.59 -7.33)"/><path class="cls-1" d="M160.06,187a103.06,103.06,0,0,0-9.9-4.66c-3.13-1-3-3.38-3-3.38v-4.85H131.34V179s.12,2.34-3,3.38a103.06,103.06,0,0,0-9.9,4.66,12.57,12.57,0,0,0-6.64,11v14.37H166.7V198A12.57,12.57,0,0,0,160.06,187Z" transform="translate(-61.59 -7.33)"/><path class="cls-8" d="M128.33,182.33s-.78.31-2,.85a13.44,13.44,0,0,0,25.9,0c-1.24-.54-2-.85-2-.85a5.71,5.71,0,0,1-1.4-.67,9.71,9.71,0,0,1-19.06,0A5.71,5.71,0,0,1,128.33,182.33Z" transform="translate(-61.59 -7.33)"/><path class="cls-9" d="M129.73,181.66a9.71,9.71,0,0,0,19.06,0,3.29,3.29,0,0,1-1.62-2.7v-4.84H131.35V179A3.29,3.29,0,0,1,129.73,181.66Z" transform="translate(-61.59 -7.33)"/><path class="cls-10" d="M151.72,154h0a12.39,12.39,0,0,0-12.45-12h0a12.39,12.39,0,0,0-12.45,12h0c-1.38,0-2.49,2.16-2.49,4.83s1.11,4.84,2.49,4.84v1a12.39,12.39,0,0,0,12.46,12.26h0a12.39,12.39,0,0,0,12.46-12.26v-1c1.38,0,2.49-2.16,2.49-4.84S153.1,154,151.72,154Z" transform="translate(-61.59 -7.33)"/><path class="cls-11" d="M146.33,140.53s-13.17-8.21-20.43,2.69c-5.64,8.46-2,15.66-.09,17.83l2,.88V155c1-2.49,2.78-4.41,6.16-2.15,2.66,1.78,4.88,1.58,6.6.67a8.44,8.44,0,0,1,10.49,1.95v6.42h1.47l1.61-3.78C158.37,139.61,146.33,140.53,146.33,140.53Z" transform="translate(-61.59 -7.33)"/><path class="cls-12" d="M198,149.75H316.53V175H198Z" transform="translate(-61.59 -7.33)"/><path class="cls-12" d="M198,187.34H316.53v25.21H198Z" transform="translate(-61.59 -7.33)"/><ellipse class="cls-13" cx="152.23" cy="192.53" rx="4.47" ry="4.3"/><ellipse class="cls-13" cx="170.34" cy="192.53" rx="4.47" ry="4.3"/><ellipse class="cls-13" cx="188.45" cy="192.53" rx="4.47" ry="4.3"/><ellipse class="cls-13" cx="206.56" cy="192.53" rx="4.47" ry="4.3"/><ellipse class="cls-13" cx="224.67" cy="192.53" rx="4.47" ry="4.3"/><ellipse class="cls-13" cx="242.77" cy="192.53" rx="4.47" ry="4.3"/><rect class="cls-14" x="143.17" y="218.43" width="56.59" height="56.59"/><polygon class="cls-15" points="171.47 252.67 199.76 275.02 199.76 230.91 171.47 252.67"/><path class="cls-13" d="M263.71,225.76h-2.36L233.06,248.1l-28.3-22.34H202.4a7.08,7.08,0,0,0-7.07,7.07v42.44a7.07,7.07,0,0,0,7.07,7.07h2.36v-44.1L233.06,260l28.29-21.77v44.11h2.36a7.07,7.07,0,0,0,7.07-7.07V232.83A7.08,7.08,0,0,0,263.71,225.76Z" transform="translate(-61.59 -7.33)"/><path class="cls-2" d="M451.83,254.05H398.92a6.61,6.61,0,0,0-6.61,6.61V375.29a6.61,6.61,0,0,0,6.61,6.61h52.91a6.61,6.61,0,0,0,6.61-6.61V260.66A6.61,6.61,0,0,0,451.83,254.05Zm-35.27,8.82a2.21,2.21,0,0,1,2.2-2.21H432a2.2,2.2,0,0,1,2.2,2.21h0a2.19,2.19,0,0,1-2.2,2.2H418.76a2.2,2.2,0,0,1-2.2-2.2ZM410,260.66a2.21,2.21,0,1,1-2.21,2.21A2.21,2.21,0,0,1,410,260.66Zm15.43,116.83a4.41,4.41,0,1,1,4.4-4.4A4.4,4.4,0,0,1,425.38,377.49ZM454,337.82v26.45H396.72V271.69H454v66.13Z" transform="translate(-61.59 -7.33)"/><path class="cls-1" d="M396.72,337.82h17.63a2.21,2.21,0,1,1,4.41,0h4.41a2.21,2.21,0,1,1,4.41,0H432a2.21,2.21,0,1,1,4.41,0H454V271.69H396.72Zm39.68-55.11a2.2,2.2,0,0,1,2.2-2.21h8.82a2.2,2.2,0,0,1,2.2,2.21v8.81a2.2,2.2,0,0,1-2.2,2.21H438.6a2.2,2.2,0,0,1-2.2-2.21Zm0,17.63a2.19,2.19,0,0,1,2.2-2.2h8.82a2.19,2.19,0,0,1,2.2,2.2v8.82a2.19,2.19,0,0,1-2.2,2.2H438.6a2.19,2.19,0,0,1-2.2-2.2Zm0,17.64a2.2,2.2,0,0,1,2.2-2.21h8.82a2.2,2.2,0,0,1,2.2,2.21v8.81a2.2,2.2,0,0,1-2.2,2.21H438.6a2.2,2.2,0,0,1-2.2-2.21Zm-17.64-35.27A2.21,2.21,0,0,1,421,280.5h8.81a2.21,2.21,0,0,1,2.21,2.21v8.81a2.21,2.21,0,0,1-2.21,2.21H421a2.21,2.21,0,0,1-2.21-2.21Zm0,17.63a2.2,2.2,0,0,1,2.21-2.2h8.81a2.2,2.2,0,0,1,2.21,2.2v8.82a2.2,2.2,0,0,1-2.21,2.2H421a2.2,2.2,0,0,1-2.21-2.2Zm0,17.64a2.21,2.21,0,0,1,2.21-2.21h8.81A2.21,2.21,0,0,1,432,318v8.81a2.21,2.21,0,0,1-2.21,2.21H421a2.21,2.21,0,0,1-2.21-2.21Zm-17.63-35.27a2.21,2.21,0,0,1,2.2-2.21h8.82a2.2,2.2,0,0,1,2.2,2.21v8.81a2.2,2.2,0,0,1-2.2,2.21h-8.82a2.21,2.21,0,0,1-2.2-2.21Zm0,17.63a2.2,2.2,0,0,1,2.2-2.2h8.82a2.19,2.19,0,0,1,2.2,2.2v8.82a2.19,2.19,0,0,1-2.2,2.2h-8.82a2.2,2.2,0,0,1-2.2-2.2Zm0,17.64a2.21,2.21,0,0,1,2.2-2.21h8.82a2.2,2.2,0,0,1,2.2,2.21v8.81a2.2,2.2,0,0,1-2.2,2.21h-8.82a2.21,2.21,0,0,1-2.2-2.21Z" transform="translate(-61.59 -7.33)"/><path class="cls-1" d="M434.19,340a2.21,2.21,0,0,1-2.2-2.2h-4.41a2.21,2.21,0,0,1-4.41,0h-4.41a2.21,2.21,0,0,1-4.41,0H396.72v26.45H454V337.82H436.4A2.21,2.21,0,0,1,434.19,340Zm-19.84,15.43a2.2,2.2,0,0,1-2.2,2.21h-8.82a2.21,2.21,0,0,1-2.2-2.21v-8.82a2.21,2.21,0,0,1,2.2-2.2h8.82a2.2,2.2,0,0,1,2.2,2.2Zm17.64,0a2.21,2.21,0,0,1-2.21,2.21H421a2.21,2.21,0,0,1-2.21-2.21v-8.82a2.21,2.21,0,0,1,2.21-2.2h8.81a2.21,2.21,0,0,1,2.21,2.2Zm6.61-11h8.82a2.2,2.2,0,0,1,2.2,2.2v8.82a2.2,2.2,0,0,1-2.2,2.21H438.6a2.2,2.2,0,0,1-2.2-2.21v-8.82A2.2,2.2,0,0,1,438.6,344.43Z" transform="translate(-61.59 -7.33)"/><path class="cls-3" d="M418.76,265.07H432a2.19,2.19,0,0,0,2.2-2.2h0a2.2,2.2,0,0,0-2.2-2.21H418.76a2.21,2.21,0,0,0-2.2,2.21h0A2.2,2.2,0,0,0,418.76,265.07Z" transform="translate(-61.59 -7.33)"/><circle class="cls-3" cx="348.36" cy="255.54" r="2.2"/><circle class="cls-3" cx="363.79" cy="365.76" r="4.41"/><path class="cls-16" d="M429.78,344.43H421a2.21,2.21,0,0,0-2.21,2.2v8.82a2.21,2.21,0,0,0,2.21,2.21h8.81a2.21,2.21,0,0,0,2.21-2.21v-8.82A2.21,2.21,0,0,0,429.78,344.43Zm-4.4,11a4.41,4.41,0,1,1,4.4-4.41A4.4,4.4,0,0,1,425.38,355.45Z" transform="translate(-61.59 -7.33)"/><path class="cls-17" d="M436.4,355.45a2.2,2.2,0,0,0,2.2,2.21h8.82a2.2,2.2,0,0,0,2.2-2.21v-8.82a2.2,2.2,0,0,0-2.2-2.2H438.6a2.2,2.2,0,0,0-2.2,2.2Z" transform="translate(-61.59 -7.33)"/><path class="cls-18" d="M412.15,344.43h-8.82a2.21,2.21,0,0,0-2.2,2.2v8.82a2.21,2.21,0,0,0,2.2,2.21h8.82a2.2,2.2,0,0,0,2.2-2.21v-8.82A2.2,2.2,0,0,0,412.15,344.43Z" transform="translate(-61.59 -7.33)"/><path class="cls-5" d="M421,329h8.81a2.21,2.21,0,0,0,2.21-2.21V318a2.21,2.21,0,0,0-2.21-2.21H421a2.21,2.21,0,0,0-2.21,2.21v8.81A2.21,2.21,0,0,0,421,329Z" transform="translate(-61.59 -7.33)"/><path class="cls-19" d="M438.6,329h8.82a2.2,2.2,0,0,0,2.2-2.21V318a2.2,2.2,0,0,0-2.2-2.21H438.6a2.2,2.2,0,0,0-2.2,2.21v8.81A2.2,2.2,0,0,0,438.6,329Zm0-6.61a2.21,2.21,0,0,1,2.21-2.21h4.41a2.21,2.21,0,0,1,2.2,2.21h0a2.21,2.21,0,0,1-2.2,2.2h-4.41a2.21,2.21,0,0,1-2.21-2.2Z" transform="translate(-61.59 -7.33)"/><path class="cls-20" d="M403.33,329h8.82a2.2,2.2,0,0,0,2.2-2.21V318a2.2,2.2,0,0,0-2.2-2.21h-8.82a2.21,2.21,0,0,0-2.2,2.21v8.81A2.21,2.21,0,0,0,403.33,329Zm0-6.61a2.21,2.21,0,0,1,2.21-2.21H410a2.21,2.21,0,0,1,2.2,2.21h0a2.21,2.21,0,0,1-2.2,2.2h-4.41a2.21,2.21,0,0,1-2.21-2.2Z" transform="translate(-61.59 -7.33)"/><path class="cls-2" d="M421,311.36h8.81a2.2,2.2,0,0,0,2.21-2.2v-8.82a2.2,2.2,0,0,0-2.21-2.2H421a2.2,2.2,0,0,0-2.21,2.2v8.82A2.2,2.2,0,0,0,421,311.36Zm0-6.61a2.19,2.19,0,0,1,2.2-2.2h4.41a2.19,2.19,0,0,1,2.2,2.2h0a2.2,2.2,0,0,1-2.2,2.21h-4.41a2.2,2.2,0,0,1-2.2-2.21Z" transform="translate(-61.59 -7.33)"/><path class="cls-5" d="M438.6,311.36h8.82a2.19,2.19,0,0,0,2.2-2.2v-8.82a2.19,2.19,0,0,0-2.2-2.2H438.6a2.19,2.19,0,0,0-2.2,2.2v8.82A2.19,2.19,0,0,0,438.6,311.36Z" transform="translate(-61.59 -7.33)"/><path class="cls-3" d="M403.33,311.36h8.82a2.19,2.19,0,0,0,2.2-2.2v-8.82a2.19,2.19,0,0,0-2.2-2.2h-8.82a2.2,2.2,0,0,0-2.2,2.2v8.82A2.2,2.2,0,0,0,403.33,311.36Zm4.41-11a4.41,4.41,0,1,1-4.41,4.41A4.41,4.41,0,0,1,407.74,300.34Z" transform="translate(-61.59 -7.33)"/><path class="cls-13" d="M421,293.73h8.81a2.21,2.21,0,0,0,2.21-2.21v-8.81a2.21,2.21,0,0,0-2.21-2.21H421a2.21,2.21,0,0,0-2.21,2.21v8.81A2.21,2.21,0,0,0,421,293.73Z" transform="translate(-61.59 -7.33)"/><path class="cls-13" d="M438.6,293.73h8.82a2.2,2.2,0,0,0,2.2-2.21v-8.81a2.2,2.2,0,0,0-2.2-2.21H438.6a2.2,2.2,0,0,0-2.2,2.21v8.81A2.2,2.2,0,0,0,438.6,293.73Zm4.41-11a4.41,4.41,0,1,1-4.41,4.41A4.4,4.4,0,0,1,443,282.71Z" transform="translate(-61.59 -7.33)"/><path class="cls-13" d="M403.33,293.73h8.82a2.2,2.2,0,0,0,2.2-2.21v-8.81a2.2,2.2,0,0,0-2.2-2.21h-8.82a2.21,2.21,0,0,0-2.2,2.21v8.81A2.21,2.21,0,0,0,403.33,293.73Z" transform="translate(-61.59 -7.33)"/><circle class="cls-13" cx="346.15" cy="297.42" r="4.41"/><circle class="cls-13" cx="363.79" cy="343.71" r="4.41"/><circle class="cls-17" cx="381.42" cy="279.79" r="4.41"/><path class="cls-20" d="M423.17,307h4.41a2.2,2.2,0,0,0,2.2-2.21h0a2.19,2.19,0,0,0-2.2-2.2h-4.41a2.19,2.19,0,0,0-2.2,2.2h0A2.2,2.2,0,0,0,423.17,307Z" transform="translate(-61.59 -7.33)"/><path class="cls-17" d="M440.81,324.59h4.4a2.21,2.21,0,0,0,2.21-2.2h0a2.21,2.21,0,0,0-2.21-2.21h-4.4a2.21,2.21,0,0,0-2.21,2.21h0A2.21,2.21,0,0,0,440.81,324.59Z" transform="translate(-61.59 -7.33)"/><path class="cls-19" d="M405.54,324.59H410a2.21,2.21,0,0,0,2.2-2.2h0a2.21,2.21,0,0,0-2.2-2.21h-4.41a2.21,2.21,0,0,0-2.21,2.21h0A2.21,2.21,0,0,0,405.54,324.59Z" transform="translate(-61.59 -7.33)"/><circle class="cls-2" cx="354.97" cy="330.49" r="2.2"/><circle class="cls-19" cx="363.79" cy="330.49" r="2.2"/><circle class="cls-19" cx="372.6" cy="330.49" r="2.2"/><path class="cls-2" d="M479,45.15a95.8,95.8,0,0,0-135.86-17,98.41,98.41,0,0,0-36.75,68h77.76c12.93,0,25.9,8.37,25.9,25.28v82.13a95.42,95.42,0,0,0,52.2-20.47C504.41,149.72,511.91,88,479,45.15Z" transform="translate(-61.59 -7.33)"/><path class="cls-13" d="M471.09,51.44A85.84,85.84,0,0,0,349.36,36.2a88.1,88.1,0,0,0-32.83,60h67.64c12.93,0,25.9,8.37,25.9,25.28v71.91a85.64,85.64,0,0,0,46-18.31C493.84,145.13,500.56,89.79,471.09,51.44Z" transform="translate(-61.59 -7.33)"/><path class="cls-21" d="M404.52,105.1h85c-.27-48.42-39-87.58-86.71-87.61v85.79A19.47,19.47,0,0,1,404.52,105.1Z" transform="translate(-61.59 -7.33)"/><path class="cls-22" d="M402.79,40.48c-32.24,0-58.84,24.22-63.35,55.7h3.76c4.48-29.39,29.4-51.93,59.59-51.93,33.36,0,60.41,27.47,60.41,61.35,0,31.37-23.21,57.2-53.13,60.85v3.81c32-3.67,56.84-31.21,56.84-64.66C466.91,69.64,438.2,40.48,402.79,40.48Z" transform="translate(-61.59 -7.33)"/><path class="cls-22" d="M402.79,72a33.13,33.13,0,0,0-31.7,24.18h3.65a29.51,29.51,0,0,1,57.64,9.42,29.93,29.93,0,0,1-22.31,29.08v3.67a33.47,33.47,0,0,0,25.81-32.75C435.88,87,421.07,72,402.79,72Z" transform="translate(-61.59 -7.33)"/><path class="cls-23" d="M406.15,107.31V26.94a3.77,3.77,0,1,0-7.53,0V100A23,23,0,0,1,406.15,107.31Z" transform="translate(-61.59 -7.33)"/><path class="cls-24" d="M408.89,113.22a9.86,9.86,0,0,0-6.1-17.49A9.56,9.56,0,0,0,396,98.62,23.24,23.24,0,0,1,408.89,113.22Z" transform="translate(-61.59 -7.33)"/><ellipse class="cls-25" cx="385.39" cy="139.87" rx="7.88" ry="8"/><ellipse class="cls-23" cx="293.34" cy="57.15" rx="7.88" ry="8"/><ellipse class="cls-26" cx="384.6" cy="53.97" rx="6.6" ry="6.7"/><path class="cls-1" d="M124.93,226h-8.32a2.58,2.58,0,1,1,0-5.15h8.32a2.58,2.58,0,1,1,0,5.15" transform="translate(-61.59 -7.33)"/><path class="cls-1" d="M163.74,226H136a2.58,2.58,0,1,1,0-5.15h27.72a2.58,2.58,0,1,1,0,5.15" transform="translate(-61.59 -7.33)"/><path class="cls-1" d="M130.47,236.3H116.61a2.58,2.58,0,1,1,0-5.15h13.86a2.58,2.58,0,1,1,0,5.15" transform="translate(-61.59 -7.33)"/><path class="cls-1" d="M149.88,236.3h-8.32a2.58,2.58,0,1,1,0-5.15h8.32a2.58,2.58,0,1,1,0,5.15" transform="translate(-61.59 -7.33)"/><path class="cls-1" d="M163.74,236.3H161a2.58,2.58,0,1,1,0-5.15h2.77a2.58,2.58,0,1,1,0,5.15" transform="translate(-61.59 -7.33)"/><path class="cls-1" d="M124.93,246.6h-8.32a2.58,2.58,0,1,1,0-5.15h8.32a2.58,2.58,0,1,1,0,5.15" transform="translate(-61.59 -7.33)"/><path class="cls-1" d="M163.74,246.6H136a2.58,2.58,0,1,1,0-5.15h27.72a2.58,2.58,0,1,1,0,5.15" transform="translate(-61.59 -7.33)"/><path class="cls-1" d="M130.47,256.89H116.61a2.58,2.58,0,1,1,0-5.15h13.86a2.58,2.58,0,1,1,0,5.15" transform="translate(-61.59 -7.33)"/><path class="cls-1" d="M149.88,256.89h-8.32a2.58,2.58,0,1,1,0-5.15h8.32a2.58,2.58,0,1,1,0,5.15" transform="translate(-61.59 -7.33)"/><path class="cls-1" d="M163.74,256.89H161a2.58,2.58,0,1,1,0-5.15h2.77a2.58,2.58,0,1,1,0,5.15" transform="translate(-61.59 -7.33)"/><path class="cls-1" d="M124.93,267.18h-8.32a2.58,2.58,0,1,1,0-5.15h8.32a2.58,2.58,0,1,1,0,5.15" transform="translate(-61.59 -7.33)"/><path class="cls-1" d="M163.74,267.18H136a2.58,2.58,0,1,1,0-5.15h27.72a2.58,2.58,0,1,1,0,5.15" transform="translate(-61.59 -7.33)"/><path class="cls-1" d="M130.47,277.48H116.61a2.58,2.58,0,1,1,0-5.15h13.86a2.58,2.58,0,1,1,0,5.15" transform="translate(-61.59 -7.33)"/><path class="cls-1" d="M149.88,277.48h-8.32a2.58,2.58,0,1,1,0-5.15h8.32a2.58,2.58,0,1,1,0,5.15" transform="translate(-61.59 -7.33)"/><path class="cls-1" d="M163.74,277.48H161a2.58,2.58,0,1,1,0-5.15h2.77a2.58,2.58,0,1,1,0,5.15" transform="translate(-61.59 -7.33)"/></svg>