<?xml version="1.0" encoding="utf-8"?>
<!-- Generator: Adobe Illustrator 22.1.0, SVG Export Plug-In . SVG Version: 6.00 Build 0)  -->
<svg version="1.1" id="Layer_1" xmlns="http://www.w3.org/2000/svg" xmlns:xlink="http://www.w3.org/1999/xlink" x="0px" y="0px"
	 viewBox="0 0 512.2 512.2" style="enable-background:new 0 0 512.2 512.2;" xml:space="preserve">
<style type="text/css">
	.st0{fill:url(#SVGID_1_);}
	.st1{fill:url(#SVGID_2_);}
	.st2{fill:url(#SVGID_3_);}
	.st3{fill:url(#SVGID_4_);}
	.st4{fill:url(#SVGID_5_);}
	.st5{fill:url(#SVGID_6_);}
	.st6{fill:url(#SVGID_7_);}
	.st7{fill:url(#SVGID_8_);}
	.st8{fill:url(#SVGID_9_);}
	.st9{fill:url(#SVGID_10_);}
	.st10{fill:url(#SVGID_11_);}
	.st11{fill:url(#SVGID_12_);}
</style>
<g>
	<g>
		<g>
			<linearGradient id="SVGID_1_" gradientUnits="userSpaceOnUse" x1="290.5286" y1="47.3782" x2="82.3988" y2="79.6236">
				<stop  offset="0" style="stop-color:#0DAEB0"/>
				<stop  offset="1" style="stop-color:#765EA9"/>
			</linearGradient>
			<path class="st0" d="M310.9,8.6c-1.2-2-3.2-3.4-5.5-3.8c-32.5-6.3-65.8-6.3-98.3,0c-2.3,0.5-4.3,1.9-5.5,3.8
				c-1.3,2-1.7,4.5-1,6.8l21.9,82.8c1.1,4.2,5.2,6.9,9.6,6.2c15.9-2.5,32.1-2.5,48,0h1.3c4,0.1,7.5-2.5,8.5-6.3l22.2-82.7
				C312.5,13.1,312.2,10.6,310.9,8.6z"/>
		</g>
	</g>
	<g>
		<g>
			<linearGradient id="SVGID_2_" gradientUnits="userSpaceOnUse" x1="291.92" y1="56.3591" x2="83.7902" y2="88.6045">
				<stop  offset="0" style="stop-color:#0DAEB0"/>
				<stop  offset="1" style="stop-color:#765EA9"/>
			</linearGradient>
			<path class="st1" d="M206.9,102.5l-22.2-82.8c-0.6-2.3-2.2-4.2-4.3-5.3c-2.1-1.1-4.5-1.3-6.7-0.6C142.4,24.5,113.4,41.2,88.4,63
				c-1.8,1.6-2.8,3.8-2.9,6.1c-0.2,2.3,0.6,4.5,2.1,6.2l60.6,60.6c1.6,1.6,3.8,2.5,6.1,2.5c2,0,3.9-0.7,5.4-1.9
				c12.4-10.1,26.4-18.2,41.4-23.9C205.4,111.4,208,107,206.9,102.5z"/>
		</g>
	</g>
	<g>
		<g>
			<linearGradient id="SVGID_3_" gradientUnits="userSpaceOnUse" x1="300.6616" y1="112.7824" x2="92.5318" y2="145.0278">
				<stop  offset="0" style="stop-color:#0DAEB0"/>
				<stop  offset="1" style="stop-color:#765EA9"/>
			</linearGradient>
			<path class="st2" d="M136.2,148.5L75.6,87.9c-1.7-1.7-4-2.6-6.3-2.5c-2.3-0.1-4.6,0.8-6.2,2.5c-21.8,25-38.5,53.9-49.2,85.3
				c-0.7,2.2-0.5,4.7,0.6,6.7c1.1,2.1,3,3.6,5.3,4.3l82.8,22.2c0.7,0.1,1.5,0.1,2.2,0c3.5,0,6.7-2.2,7.9-5.5c5.7-15,13.8-29,24-41.4
				C139.3,156.2,139.1,151.5,136.2,148.5z"/>
		</g>
	</g>
	<g>
		<g>
			<linearGradient id="SVGID_4_" gradientUnits="userSpaceOnUse" x1="315.5789" y1="209.0668" x2="107.4491" y2="241.3123">
				<stop  offset="0" style="stop-color:#0DAEB0"/>
				<stop  offset="1" style="stop-color:#765EA9"/>
			</linearGradient>
			<path class="st3" d="M104.4,280c-1.3-7.9-1.9-15.9-1.9-24c-0.1-8.1,0.5-16.2,1.7-24.2c0.7-4.3-2-8.4-6.2-9.6l-82.7-22.2
				c-0.2,0-0.4-0.1-0.5-0.1c-4.6-0.9-9.1,2.1-10,6.7c-6.4,32.5-6.4,65.8,0,98.3c0.8,4,4.4,6.9,8.5,6.8c0.7,0.1,1.5,0.1,2.2,0
				l82.7-22.2C102.4,288.5,105.1,284.4,104.4,280z"/>
		</g>
	</g>
	<g>
		<g>
			<linearGradient id="SVGID_5_" gradientUnits="userSpaceOnUse" x1="334.0037" y1="327.9903" x2="125.8739" y2="360.2357">
				<stop  offset="0" style="stop-color:#0DAEB0"/>
				<stop  offset="1" style="stop-color:#765EA9"/>
			</linearGradient>
			<path class="st4" d="M136.7,352.6c-10.1-12.6-18-26.6-23.6-41.7c-1.6-4.1-5.9-6.3-10.2-5.2l-82.8,22.2c-2.3,0.6-4.2,2.2-5.3,4.3
				c-1.1,2.1-1.3,4.5-0.6,6.7c10.6,31.4,27.3,60.4,49.2,85.3c1.6,1.8,3.8,2.8,6.1,2.9c2.3,0,4.4-0.9,6.1-2.5l60.6-60.6
				C139.3,360.9,139.5,356,136.7,352.6z"/>
		</g>
	</g>
	<g>
		<g>
			<linearGradient id="SVGID_6_" gradientUnits="userSpaceOnUse" x1="346.4217" y1="408.143" x2="138.2919" y2="440.3885">
				<stop  offset="0" style="stop-color:#0DAEB0"/>
				<stop  offset="1" style="stop-color:#765EA9"/>
			</linearGradient>
			<path class="st5" d="M201,399.5c-15-5.7-29-13.8-41.4-24c-3.3-2.6-8-2.4-11.1,0.5L88,436.6c-1.7,1.7-2.6,4-2.5,6.3
				c-0.2,2.4,0.6,4.9,2.2,6.7c25,21.8,53.9,38.5,85.3,49.2c0.9,0.1,1.8,0.1,2.7,0c1.4,0,2.8-0.4,4-1c2.1-1.1,3.6-3,4.3-5.3
				l22.2-82.8C207.4,405.4,205.1,401.1,201,399.5z"/>
		</g>
	</g>
	<g>
		<g>
			<linearGradient id="SVGID_7_" gradientUnits="userSpaceOnUse" x1="352.072" y1="444.6131" x2="143.9422" y2="476.8586">
				<stop  offset="0" style="stop-color:#0DAEB0"/>
				<stop  offset="1" style="stop-color:#765EA9"/>
			</linearGradient>
			<path class="st6" d="M311.9,496.8l-22.2-82.7c-1.1-4.2-5.2-6.9-9.6-6.2c-15.9,2.5-32.1,2.5-48,0c-4.3-0.7-8.4,2-9.6,6.2
				l-22.2,82.7c-0.6,2.3-0.2,4.7,1,6.7c1.2,2,3.2,3.4,5.5,3.8c32.5,6.4,65.8,6.4,98.3,0c2.3-0.5,4.3-1.9,5.5-3.8
				C312.1,501.5,312.5,499.1,311.9,496.8z"/>
		</g>
	</g>
	<g>
		<g>
			<linearGradient id="SVGID_8_" gradientUnits="userSpaceOnUse" x1="350.6626" y1="435.5164" x2="142.5329" y2="467.7618">
				<stop  offset="0" style="stop-color:#0DAEB0"/>
				<stop  offset="1" style="stop-color:#765EA9"/>
			</linearGradient>
			<path class="st7" d="M424.7,436.7l-60.6-60.6c-3.1-3.1-8-3.4-11.4-0.6c-12.4,10.1-26.4,18.2-41.4,24c-4.1,1.6-6.3,5.9-5.2,10.2
				l21.5,82.3c0.6,2.3,2.2,4.2,4.3,5.3c1.2,0.7,2.6,1,4,1c0.9,0.1,1.8,0.1,2.7,0c31.4-10.6,60.4-27.3,85.3-49.2
				c1.8-1.6,2.8-3.8,2.9-6.1C427,440.7,426.2,438.4,424.7,436.7z"/>
		</g>
	</g>
	<g>
		<g>
			<linearGradient id="SVGID_9_" gradientUnits="userSpaceOnUse" x1="341.9761" y1="379.4489" x2="133.8464" y2="411.6944">
				<stop  offset="0" style="stop-color:#0DAEB0"/>
				<stop  offset="1" style="stop-color:#765EA9"/>
			</linearGradient>
			<path class="st8" d="M497.8,332.4c-1.1-2.1-3-3.6-5.3-4.3L409.8,306c-4.2-1.1-8.6,1.1-10.2,5.2c-5.7,15-13.8,29-24,41.4
				c-2.9,3.5-2.6,8.7,0.8,11.8l60.6,60.6c1.6,1.6,3.8,2.4,6.1,2.5c2.4-0.1,4.6-1.1,6.1-2.9c21.8-25,38.5-53.9,49.2-85.3
				C499.1,337,498.9,334.5,497.8,332.4z"/>
		</g>
	</g>
	<g>
		<g>
			<linearGradient id="SVGID_10_" gradientUnits="userSpaceOnUse" x1="327.0045" y1="282.8138" x2="118.8747" y2="315.0593">
				<stop  offset="0" style="stop-color:#0DAEB0"/>
				<stop  offset="1" style="stop-color:#765EA9"/>
			</linearGradient>
			<path class="st9" d="M507.2,207.2c0-0.2-0.1-0.4-0.1-0.5c-1.2-4.6-5.9-7.2-10.5-6L414,222.8c-4.2,1.1-6.9,5.2-6.2,9.6
				c2.5,15.9,2.5,32.1,0,48c-0.7,4.3,2,8.4,6.2,9.6l82.7,22.2c0.7,0.1,1.5,0.1,2.2,0c4.1,0.1,7.7-2.8,8.5-6.8
				c3.2-16.2,4.8-32.7,4.8-49.2C512.1,239.6,510.5,223.3,507.2,207.2z"/>
		</g>
	</g>
	<g>
		<g>
			<linearGradient id="SVGID_11_" gradientUnits="userSpaceOnUse" x1="308.5818" y1="163.9039" x2="100.4521" y2="196.1494">
				<stop  offset="0" style="stop-color:#0DAEB0"/>
				<stop  offset="1" style="stop-color:#765EA9"/>
			</linearGradient>
			<path class="st10" d="M498.3,173.6c-10.6-31.4-27.3-60.4-49.2-85.3c-1.6-1.8-3.8-2.8-6.1-2.9c-2.3-0.2-4.6,0.6-6.2,2.1
				l-60.6,60.6c-3.1,3.1-3.4,8-0.6,11.4c10.1,12.4,18.2,26.2,24,41.1c1.3,3.3,4.4,5.5,7.9,5.5c0.7,0.1,1.5,0.1,2.2,0l82.7-22.2
				c2.3-0.6,4.2-2.2,5.3-4.3C498.7,177.8,498.9,175.7,498.3,173.6z"/>
		</g>
	</g>
	<g>
		<g>
			<linearGradient id="SVGID_12_" gradientUnits="userSpaceOnUse" x1="296.1818" y1="83.867" x2="88.052" y2="116.1125">
				<stop  offset="0" style="stop-color:#0DAEB0"/>
				<stop  offset="1" style="stop-color:#765EA9"/>
			</linearGradient>
			<path class="st11" d="M424.6,63c-25-21.8-53.9-38.5-85.3-49.2c-2.2-0.7-4.7-0.5-6.7,0.6c-2.1,1.1-3.6,3-4.3,5.3l-22.2,82.8
				c-1.2,4.2,0.9,8.6,4.9,10.2c15,5.7,29,13.8,41.4,24c1.5,1.2,3.4,1.9,5.4,1.9c2.3,0,4.4-0.9,6.1-2.5l60.6-60.6
				c1.7-1.7,2.6-4,2.5-6.3C427,66.9,426.2,64.6,424.6,63z"/>
		</g>
	</g>
</g>
</svg>
