<?xml version="1.0" encoding="utf-8"?>
<!-- Generator: Adobe Illustrator 22.1.0, SVG Export Plug-In . SVG Version: 6.00 Build 0)  -->
<svg version="1.1" id="Layer_1" xmlns="http://www.w3.org/2000/svg" xmlns:xlink="http://www.w3.org/1999/xlink" x="0px" y="0px"
	 viewBox="0 0 512.2 512.2" style="enable-background:new 0 0 512.2 512.2;" xml:space="preserve">
<style type="text/css">
	.st0{fill:url(#SVGID_1_);}
</style>
<linearGradient id="SVGID_1_" gradientUnits="userSpaceOnUse" x1="207.1662" y1="255.8206" x2="310.1149" y2="255.8206">
	<stop  offset="0" style="stop-color:#0DAEB0"/>
	<stop  offset="1" style="stop-color:#765EA9"/>
</linearGradient>
<path class="st0" d="M207.8,357.6c13.3-34.8,27-69.8,40.6-105.2c-13.9,0-27.1,0-41.1,0c0.6-1.5,0.9-2.2,1.2-3.1
	c13-30.8,25.8-62.1,38.8-92.9c0.9-1.9,1.8-2.8,4-2.5c13.3,0,27,0,40.3,0c0.9,0,1.8,0,2.8,0c-10.2,20.4-20.4,40.6-30.8,60.9
	c15.6,0,30.8,0,46.8,0c-34.4,47.9-68,95.3-102.1,142.9C208.1,357.9,207.8,357.6,207.8,357.6z"/>
</svg>
